<svg id="magicoon-Light" xmlns="http://www.w3.org/2000/svg" viewBox="0 0 24 24"><defs><style>.cls-1{fill:#41416e;}</style></defs><title>bell-slash</title><g id="bell-slash-Light"><path id="bell-slash-Light-2" data-name="bell-slash-Light" class="cls-1" d="M19.138,13.932A4.485,4.485,0,0,1,18.5,11.62V8.99a6.421,6.421,0,0,0-.446-2.338l2.3-2.3a.5.5,0,0,0-.708-.707l-14,14h0l-2,2a.5.5,0,1,0,.708.707L6.207,18.5H9.566A2.474,2.474,0,0,0,9.5,19a2.5,2.5,0,0,0,5,0,2.474,2.474,0,0,0-.066-.5H18.7a1.8,1.8,0,0,0,1.539-2.727ZM13.5,19a1.5,1.5,0,1,1-2.9-.5H13.4A1.5,1.5,0,0,1,13.5,19Zm5.892-1.9a.786.786,0,0,1-.692.4H7.207L17.27,7.437A5.431,5.431,0,0,1,17.5,8.99v2.63a5.486,5.486,0,0,0,.781,2.827l1.1,1.839A.8.8,0,0,1,19.392,17.1Zm-15.3-1.874.77-1.29A4.48,4.48,0,0,0,5.5,11.62V8.99a6.513,6.513,0,0,1,10.529-5.1.5.5,0,0,1-.617.787A5.513,5.513,0,0,0,6.5,8.99v2.63a5.478,5.478,0,0,1-.782,2.828l-.769,1.288a.5.5,0,1,1-.858-.513Z"/></g></svg>