<svg id="magicoon-Light" xmlns="http://www.w3.org/2000/svg" viewBox="0 0 24 24"><defs><style>.cls-1{fill:#41416e;}</style></defs><title>bell</title><g id="bell-Light"><path id="bell-Light-2" data-name="bell-Light" class="cls-1" d="M20.242,15.775l-1.107-1.846a4.5,4.5,0,0,1-.64-2.312V8.99a6.5,6.5,0,0,0-12.99,0v2.627a4.5,4.5,0,0,1-.64,2.312L3.758,15.775A1.8,1.8,0,0,0,5.3,18.5H9.566A2.474,2.474,0,0,0,9.5,19a2.5,2.5,0,0,0,5,0,2.474,2.474,0,0,0-.066-.5H18.7a1.8,1.8,0,0,0,1.545-2.725ZM13.5,19a1.5,1.5,0,1,1-2.9-.5H13.4A1.5,1.5,0,0,1,13.5,19Zm5.894-1.906a.793.793,0,0,1-.7.406H5.3a.8.8,0,0,1-.687-1.211l1.106-1.846a5.5,5.5,0,0,0,.783-2.826V8.99a5.5,5.5,0,0,1,10.99,0v2.627a5.5,5.5,0,0,0,.783,2.826l1.106,1.846A.79.79,0,0,1,19.394,17.094Z"/></g></svg>