<svg id="magicoon-Light" xmlns="http://www.w3.org/2000/svg" viewBox="0 0 24 24"><defs><style>.cls-1{fill:#41416e;}</style></defs><title>bookmark</title><g id="bookmark-Light"><path id="bookmark-Light-2" data-name="bookmark-Light" class="cls-1" d="M15,2.5H9A4.505,4.505,0,0,0,4.5,7V20a1.5,1.5,0,0,0,2.354,1.232l4.859-3.366a.5.5,0,0,1,.57,0l4.863,3.367A1.5,1.5,0,0,0,19.5,20V7A4.505,4.505,0,0,0,15,2.5ZM18.5,20a.5.5,0,0,1-.785.411l-4.863-3.368a1.506,1.506,0,0,0-1.708,0L6.285,20.409A.5.5,0,0,1,5.5,20V7A3.5,3.5,0,0,1,9,3.5h6A3.5,3.5,0,0,1,18.5,7Z"/></g></svg>