<svg id="magicoon-Light" xmlns="http://www.w3.org/2000/svg" viewBox="0 0 24 24"><defs><style>.cls-1{fill:#41416e;}</style></defs><title>calendar</title><g id="calendar-Light"><path id="calendar-Light-2" data-name="calendar-Light" class="cls-1" d="M17,3.5h-.5V3a.5.5,0,0,0-1,0v.5h-7V3a.5.5,0,0,0-1,0v.5H7A4.5,4.5,0,0,0,2.5,8v9A4.505,4.505,0,0,0,7,21.5H17A4.505,4.505,0,0,0,21.5,17V8A4.5,4.5,0,0,0,17,3.5ZM7,4.5h.5V6a.5.5,0,0,0,1,0V4.5h7V6a.5.5,0,0,0,1,0V4.5H17A3.5,3.5,0,0,1,20.5,8v.5H3.5V8A3.5,3.5,0,0,1,7,4.5Zm10,16H7A3.5,3.5,0,0,1,3.5,17V9.5h17V17A3.5,3.5,0,0,1,17,20.5ZM17,13a1,1,0,1,1-1-1A1,1,0,0,1,17,13Zm-4,0a1,1,0,1,1-1-1A1,1,0,0,1,13,13ZM9,13a1,1,0,1,1-1-1A1,1,0,0,1,9,13Zm8,4a1,1,0,1,1-1-1A1,1,0,0,1,17,17Zm-4,0a1,1,0,1,1-1-1A1,1,0,0,1,13,17ZM9,17a1,1,0,1,1-1-1A1,1,0,0,1,9,17Z"/></g></svg>