<svg id="magicoon-Light" xmlns="http://www.w3.org/2000/svg" viewBox="0 0 24 24"><defs><style>.cls-1{fill:#41416e;}</style></defs><title>camera</title><g id="camera-Light"><path id="camera-Light-2" data-name="camera-Light" class="cls-1" d="M17.273,6.508,16.01,4.613A2.5,2.5,0,0,0,13.93,3.5H10.07A2.5,2.5,0,0,0,7.99,4.613L6.727,6.508A4.506,4.506,0,0,0,2.5,11v5A4.505,4.505,0,0,0,7,20.5H17A4.505,4.505,0,0,0,21.5,16V11A4.506,4.506,0,0,0,17.273,6.508ZM20.5,16A3.5,3.5,0,0,1,17,19.5H7A3.5,3.5,0,0,1,3.5,16V11A3.5,3.5,0,0,1,7,7.5a.5.5,0,0,0,.416-.223L8.822,5.168A1.5,1.5,0,0,1,10.07,4.5h3.86a1.5,1.5,0,0,1,1.248.668l1.406,2.109A.5.5,0,0,0,17,7.5,3.5,3.5,0,0,1,20.5,11ZM12,9.5A3.5,3.5,0,1,0,15.5,13,3.5,3.5,0,0,0,12,9.5Zm0,6A2.5,2.5,0,1,1,14.5,13,2.5,2.5,0,0,1,12,15.5ZM18.85,10A.85.85,0,1,1,18,9.15.851.851,0,0,1,18.85,10Z"/></g></svg>