<svg id="magicoon-Light" xmlns="http://www.w3.org/2000/svg" viewBox="0 0 24 24"><defs><style>.cls-1{fill:#41416e;}</style></defs><title>chart-pie</title><g id="chart-pie-Light"><path id="chart-pie-Light-2" data-name="chart-pie-Light" class="cls-1" d="M21.46,10.029a9.546,9.546,0,0,0-7.489-7.49,2.009,2.009,0,0,0-2.4,1.967V9.93a2.5,2.5,0,0,0,2.5,2.5h5.424a2.007,2.007,0,0,0,1.967-2.4Zm-1.189,1.032a1,1,0,0,1-.778.369H14.069a1.5,1.5,0,0,1-1.5-1.5V4.506A1.009,1.009,0,0,1,13.575,3.5a1.023,1.023,0,0,1,.2.02,8.546,8.546,0,0,1,6.706,6.706A1,1,0,0,1,20.271,11.061ZM20.1,15.146A9,9,0,1,1,8.854,3.9a.5.5,0,1,1,.292.957,8,8,0,1,0,10,10,.5.5,0,1,1,.957.292Z"/></g></svg>