<svg id="magicoon-Light" xmlns="http://www.w3.org/2000/svg" viewBox="0 0 24 24"><defs><style>.cls-1{fill:#41416e;}</style></defs><title>check-circle</title><g id="check-circle-Light"><path id="check-circle-Light-2" data-name="check-circle-Light" class="cls-1" d="M16.354,9.646a.5.5,0,0,1,0,.707l-5,5a.5.5,0,0,1-.708,0l-3-3a.5.5,0,0,1,.708-.707L11,14.293l4.646-4.647A.5.5,0,0,1,16.354,9.646ZM21.5,12A9.5,9.5,0,1,1,12,2.5,9.511,9.511,0,0,1,21.5,12Zm-1,0A8.5,8.5,0,1,0,12,20.5,8.51,8.51,0,0,0,20.5,12Z"/></g></svg>