<svg id="magicoon-Light" xmlns="http://www.w3.org/2000/svg" viewBox="0 0 24 24"><defs><style>.cls-1{fill:#41416e;}</style></defs><title>chevron-circle-right</title><g id="chevron-circle-right-Light"><path id="chevron-circle-right-Light-2" data-name="chevron-circle-right-Light" class="cls-1" d="M12,2.5A9.5,9.5,0,1,0,21.5,12,9.511,9.511,0,0,0,12,2.5Zm0,18A8.5,8.5,0,1,1,20.5,12,8.51,8.51,0,0,1,12,20.5Zm2.354-8.854a.5.5,0,0,1,0,.707l-3,3a.5.5,0,1,1-.708-.707L13.293,12,10.646,9.353a.5.5,0,0,1,.708-.707Z"/></g></svg>