<svg id="magicoon-Light" xmlns="http://www.w3.org/2000/svg" viewBox="0 0 24 24"><defs><style>.cls-1{fill:#41416e;}</style></defs><title>comments</title><g id="comments-Light"><path id="comments-Light-2" data-name="comments-Light" class="cls-1" d="M18,7.5h-.5V6A3.5,3.5,0,0,0,14,2.5H6A3.5,3.5,0,0,0,2.5,6V16a.5.5,0,0,0,.857.35L5.17,14.5H6.5V16A3.5,3.5,0,0,0,10,19.5h8.83l1.813,1.85A.5.5,0,0,0,21.5,21V11A3.5,3.5,0,0,0,18,7.5Zm-13.04,6a.5.5,0,0,0-.357.15L3.5,14.775V6A2.5,2.5,0,0,1,6,3.5h8A2.5,2.5,0,0,1,16.5,6v5A2.5,2.5,0,0,1,14,13.5ZM20.5,19.775,19.4,18.65a.5.5,0,0,0-.357-.15H10A2.5,2.5,0,0,1,7.5,16V14.5H14A3.5,3.5,0,0,0,17.5,11V8.5H18A2.5,2.5,0,0,1,20.5,11Z"/></g></svg>