<svg id="magicoon-Light" xmlns="http://www.w3.org/2000/svg" viewBox="0 0 24 24"><defs><style>.cls-1{fill:#41416e;}</style></defs><title>compass</title><g id="compass-Light"><path id="compass-Light-2" data-name="compass-Light" class="cls-1" d="M12,2.5A9.5,9.5,0,1,0,21.5,12,9.511,9.511,0,0,0,12,2.5Zm0,18A8.5,8.5,0,1,1,20.5,12,8.51,8.51,0,0,1,12,20.5ZM15.262,6.919,11.207,7.933a4.491,4.491,0,0,0-3.274,3.274L6.919,15.261a1.5,1.5,0,0,0,1.45,1.865,1.51,1.51,0,0,0,.369-.046l4.055-1.013a4.492,4.492,0,0,0,3.274-3.274l1.014-4.055a1.5,1.5,0,0,0-1.819-1.819Zm.849,1.576L15.1,12.551A3.5,3.5,0,0,1,12.551,15.1L8.495,16.111a.5.5,0,0,1-.606-.607L8.9,11.449A3.494,3.494,0,0,1,11.449,8.9L15.5,7.889a.5.5,0,0,1,.607.606ZM13,12a1,1,0,1,1-1-1A1,1,0,0,1,13,12Z"/></g></svg>