<svg id="magicoon-Light" xmlns="http://www.w3.org/2000/svg" viewBox="0 0 24 24"><defs><style>.cls-1{fill:#41416e;}</style></defs><title>copy</title><g id="copy-Light"><path id="copy-Light-2" data-name="copy-Light" class="cls-1" d="M21.061,6.354,17.646,2.939a1.49,1.49,0,0,0-1.06-.439H11A3.5,3.5,0,0,0,7.5,6v.5H6A3.5,3.5,0,0,0,2.5,10v8A3.5,3.5,0,0,0,6,21.5h7A3.5,3.5,0,0,0,16.5,18v-.5H18A3.5,3.5,0,0,0,21.5,14V7.414A1.49,1.49,0,0,0,21.061,6.354Zm-3.58-2.166,2.331,2.331H18.8A1.323,1.323,0,0,1,17.481,5.2ZM15.5,18A2.5,2.5,0,0,1,13,20.5H6A2.5,2.5,0,0,1,3.5,18V10A2.5,2.5,0,0,1,6,7.5H7.5V14A3.5,3.5,0,0,0,11,17.5h4.5ZM18,16.5H11A2.5,2.5,0,0,1,8.5,14V6A2.5,2.5,0,0,1,11,3.5h5.481V5.2A2.323,2.323,0,0,0,18.8,7.519h1.7V14A2.5,2.5,0,0,1,18,16.5Z"/></g></svg>