<svg id="magicoon-Light" xmlns="http://www.w3.org/2000/svg" viewBox="0 0 24 24"><defs><style>.cls-1{fill:#41416e;}</style></defs><title>coupon</title><g id="coupon-Light"><path id="coupon-Light-2" data-name="coupon-Light" class="cls-1" d="M21,10.5h.5V9A4.5,4.5,0,0,0,17,4.5H7A4.5,4.5,0,0,0,2.5,9v1.5H3a1.5,1.5,0,0,1,0,3H2.5V15A4.505,4.505,0,0,0,7,19.5H17A4.505,4.505,0,0,0,21.5,15V13.5H21a1.5,1.5,0,0,1,0-3Zm-.5,3.949V15A3.5,3.5,0,0,1,17,18.5H15.5V16a.5.5,0,0,0-1,0v2.5H7A3.5,3.5,0,0,1,3.5,15v-.551a2.5,2.5,0,0,0,0-4.9V9A3.5,3.5,0,0,1,7,5.5h7.5V8a.5.5,0,0,0,1,0V5.5H17A3.5,3.5,0,0,1,20.5,9v.55a2.5,2.5,0,0,0,0,4.9ZM15.5,11v2a.5.5,0,0,1-1,0V11a.5.5,0,0,1,1,0Z"/></g></svg>