<svg id="magicoon-Light" xmlns="http://www.w3.org/2000/svg" viewBox="0 0 24 24"><defs><style>.cls-1{fill:#41416e;}</style></defs><title>credit-card</title><g id="credit-card-Light"><path id="credit-card-Light-2" data-name="credit-card-Light" class="cls-1" d="M17,4.5H7A4.5,4.5,0,0,0,2.5,9v6A4.505,4.505,0,0,0,7,19.5H17A4.505,4.505,0,0,0,21.5,15V9A4.5,4.5,0,0,0,17,4.5ZM7,5.5H17A3.5,3.5,0,0,1,20.5,9v.5H3.5V9A3.5,3.5,0,0,1,7,5.5Zm10,13H7A3.5,3.5,0,0,1,3.5,15V10.5h17V15A3.5,3.5,0,0,1,17,18.5ZM10.5,15a.5.5,0,0,1-.5.5H7a.5.5,0,0,1,0-1h3A.5.5,0,0,1,10.5,15Z"/></g></svg>