<svg id="magicoon-Light" xmlns="http://www.w3.org/2000/svg" viewBox="0 0 24 24"><defs><style>.cls-1{fill:#41416e;}</style></defs><title>desktop</title><g id="desktop-Light"><path id="desktop-Light-2" data-name="desktop-Light" class="cls-1" d="M17,2.5H7A4.5,4.5,0,0,0,2.5,7v6A4.505,4.505,0,0,0,7,17.5h4.5v3H8a.5.5,0,0,0,0,1h8a.5.5,0,0,0,0-1H12.5v-3H17A4.505,4.505,0,0,0,21.5,13V7A4.5,4.5,0,0,0,17,2.5ZM20.5,13A3.5,3.5,0,0,1,17,16.5H7A3.5,3.5,0,0,1,3.5,13V7A3.5,3.5,0,0,1,7,3.5H17A3.5,3.5,0,0,1,20.5,7Z"/></g></svg>