<svg id="magicoon-Light" xmlns="http://www.w3.org/2000/svg" viewBox="0 0 24 24"><defs><style>.cls-1{fill:#41416e;}</style></defs><title>discount</title><g id="discount-Light"><path id="discount-Light-2" data-name="discount-Light" class="cls-1" d="M20.618,9.871l-.578-.578A1.5,1.5,0,0,1,19.6,8.226V7.412a3.013,3.013,0,0,0-3.01-3.01h-.815a1.5,1.5,0,0,1-1.066-.442l-.579-.578a3.012,3.012,0,0,0-4.256,0l-.579.578A1.5,1.5,0,0,1,8.227,4.4H7.412A3.013,3.013,0,0,0,4.4,7.412v.814A1.5,1.5,0,0,1,3.96,9.293l-.578.578a3.013,3.013,0,0,0,0,4.257l.578.579A1.5,1.5,0,0,1,4.4,15.773v.815a3.014,3.014,0,0,0,3.01,3.01h.815a1.5,1.5,0,0,1,1.066.441l.579.579a3.013,3.013,0,0,0,4.256,0l.579-.579a1.5,1.5,0,0,1,1.066-.441h.815a3.014,3.014,0,0,0,3.01-3.01v-.815a1.5,1.5,0,0,1,.442-1.066l.578-.579A3.013,3.013,0,0,0,20.618,9.871Zm-.707,3.55L19.333,14a2.488,2.488,0,0,0-.735,1.773v.815a2.012,2.012,0,0,1-2.01,2.01h-.815A2.5,2.5,0,0,0,14,19.332l-.579.579a2.013,2.013,0,0,1-2.842,0L10,19.332A2.5,2.5,0,0,0,8.227,18.6H7.412a2.013,2.013,0,0,1-2.01-2.01v-.815A2.488,2.488,0,0,0,4.667,14l-.578-.579a2.012,2.012,0,0,1,0-2.843L4.667,10A2.492,2.492,0,0,0,5.4,8.226V7.412A2.012,2.012,0,0,1,7.412,5.4h.815A2.492,2.492,0,0,0,10,4.667l.579-.578a2.011,2.011,0,0,1,2.842,0L14,4.667a2.492,2.492,0,0,0,1.773.735h.815a2.011,2.011,0,0,1,2.01,2.01v.814A2.492,2.492,0,0,0,19.333,10l.578.578A2.012,2.012,0,0,1,19.911,13.421ZM15.354,8.646a.5.5,0,0,1,0,.707l-6,6a.5.5,0,1,1-.708-.707l6-6A.5.5,0,0,1,15.354,8.646ZM15.5,14.5a1,1,0,1,1-1-1A1,1,0,0,1,15.5,14.5Zm-7-5a1,1,0,1,1,1,1A1,1,0,0,1,8.5,9.5Z"/></g></svg>