<svg id="magicoon-Light" xmlns="http://www.w3.org/2000/svg" viewBox="0 0 24 24"><defs><style>.cls-1{fill:#41416e;}</style></defs><title>download</title><g id="download-Light"><path id="download-Light-2" data-name="download-Light" class="cls-1" d="M8.646,8.354a.5.5,0,0,1,.708-.708L11.5,9.793V4a.5.5,0,0,1,1,0V9.793l2.146-2.147a.5.5,0,0,1,.708.708l-3,3a.5.5,0,0,1-.708,0ZM17,10.5a.5.5,0,0,0,0,1A3.5,3.5,0,0,1,20.5,15v1A3.5,3.5,0,0,1,17,19.5H7A3.5,3.5,0,0,1,3.5,16V15A3.5,3.5,0,0,1,7,11.5a.5.5,0,0,0,0-1A4.505,4.505,0,0,0,2.5,15v1A4.505,4.505,0,0,0,7,20.5H17A4.505,4.505,0,0,0,21.5,16V15A4.505,4.505,0,0,0,17,10.5ZM17,16a1,1,0,1,0-1-1A1,1,0,0,0,17,16Z"/></g></svg>