<svg id="magicoon-Light" xmlns="http://www.w3.org/2000/svg" viewBox="0 0 24 24"><defs><style>.cls-1{fill:#41416e;}</style></defs><title>envelope</title><g id="envelope-Light"><path id="envelope-Light-2" data-name="envelope-Light" class="cls-1" d="M17,4.5H7A4.5,4.5,0,0,0,2.5,9v6A4.505,4.505,0,0,0,7,19.5H17A4.505,4.505,0,0,0,21.5,15V9A4.5,4.5,0,0,0,17,4.5ZM7,5.5H17a3.493,3.493,0,0,1,3.3,2.368l-6.355,4.237a3.49,3.49,0,0,1-3.882,0L3.7,7.868A3.493,3.493,0,0,1,7,5.5ZM20.5,15A3.5,3.5,0,0,1,17,18.5H7A3.5,3.5,0,0,1,3.5,15V9c0-.021.006-.041.006-.062l6,4a4.489,4.489,0,0,0,4.992,0l6-4c0,.021.006.041.006.062Z"/></g></svg>