<svg id="magicoon-Light" xmlns="http://www.w3.org/2000/svg" viewBox="0 0 24 24"><defs><style>.cls-1{fill:#41416e;}</style></defs><title>exclamation-circle</title><g id="exclamation-circle-Light"><path id="exclamation-circle-Light-2" data-name="exclamation-circle-Light" class="cls-1" d="M12,2.5A9.5,9.5,0,1,0,21.5,12,9.511,9.511,0,0,0,12,2.5Zm0,18A8.5,8.5,0,1,1,20.5,12,8.51,8.51,0,0,1,12,20.5Zm.75-4.5a.75.75,0,1,1-.75-.75A.75.75,0,0,1,12.75,16ZM11.5,12V8a.5.5,0,0,1,1,0v4a.5.5,0,0,1-1,0Z"/></g></svg>