<svg id="magicoon-Light" xmlns="http://www.w3.org/2000/svg" viewBox="0 0 24 24"><defs><style>.cls-1{fill:#41416e;}</style></defs><title>eye-slash</title><g id="eye-slash-Light"><path id="eye-slash-Light-2" data-name="eye-slash-Light" class="cls-1" d="M21.016,10.243a13.957,13.957,0,0,0-3.027-3.528l2.362-2.361a.5.5,0,0,0-.707-.708L14.112,9.178h0v0L3.644,19.646a.5.5,0,0,0,.707.708L6.806,17.9A9.219,9.219,0,0,0,12,19.5c4.824,0,7.719-3.6,9.016-5.743A3.419,3.419,0,0,0,21.016,10.243ZM15,12a3,3,0,0,1-3,3,2.944,2.944,0,0,1-1.731-.562l4.169-4.169A2.942,2.942,0,0,1,15,12Zm5.162,1.241C18.972,15.205,16.333,18.5,12,18.5a8.221,8.221,0,0,1-4.458-1.337L9.56,15.145A3.922,3.922,0,0,0,12,16a4,4,0,0,0,4-4,3.925,3.925,0,0,0-.855-2.438l2.14-2.14a12.869,12.869,0,0,1,2.876,3.335A2.415,2.415,0,0,1,20.159,13.241ZM4.32,15.623a14.659,14.659,0,0,1-1.336-1.865,3.421,3.421,0,0,1,0-3.514C4.281,8.1,7.176,4.5,12,4.5a9.461,9.461,0,0,1,2.753.411.5.5,0,0,1-.288.958A8.463,8.463,0,0,0,12,5.5c-4.333,0-6.972,3.3-8.16,5.259a2.419,2.419,0,0,0,0,2.485,13.444,13.444,0,0,0,1.242,1.733.5.5,0,0,1-.764.646Zm7.051-7.567a.5.5,0,1,1,.153.988,3,3,0,0,0-2.483,2.482.5.5,0,1,1-.988-.152A4,4,0,0,1,11.371,8.056Z"/></g></svg>