<svg id="magicoon-Light" xmlns="http://www.w3.org/2000/svg" viewBox="0 0 24 24"><defs><style>.cls-1{fill:#41416e;}</style></defs><title>eye</title><g id="eye-Light"><path id="eye-Light-2" data-name="eye-Light" class="cls-1" d="M21.015,10.245C19.727,8.1,16.843,4.5,12,4.5S4.273,8.1,2.985,10.245a3.4,3.4,0,0,0,0,3.51C4.273,15.9,7.158,19.5,12,19.5s7.727-3.6,9.015-5.745A3.4,3.4,0,0,0,21.015,10.245Zm-.857,3C18.978,15.205,16.35,18.5,12,18.5s-6.978-3.295-8.158-5.259a2.409,2.409,0,0,1,0-2.482C5.022,8.8,7.65,5.5,12,5.5s6.978,3.3,8.158,5.259A2.409,2.409,0,0,1,20.158,13.241ZM12,8a4,4,0,1,0,4,4A4,4,0,0,0,12,8Zm0,7a3,3,0,1,1,3-3A3,3,0,0,1,12,15Z"/></g></svg>