<svg id="magicoon-Light" xmlns="http://www.w3.org/2000/svg" viewBox="0 0 24 24"><defs><style>.cls-1{fill:#41416e;}</style></defs><title>file</title><g id="file-Light"><path id="file-Light-2" data-name="file-Light" class="cls-1" d="M19.061,7.354,14.646,2.939a1.49,1.49,0,0,0-1.06-.439H9A4.505,4.505,0,0,0,4.5,7V17A4.505,4.505,0,0,0,9,21.5h6A4.505,4.505,0,0,0,19.5,17V8.414A1.49,1.49,0,0,0,19.061,7.354ZM14.5,4.207,17.793,7.5H16.5a2,2,0,0,1-2-2ZM15,20.5H9A3.5,3.5,0,0,1,5.5,17V7A3.5,3.5,0,0,1,9,3.5h4.5v2a3,3,0,0,0,3,3h2V17A3.5,3.5,0,0,1,15,20.5Z"/></g></svg>