<svg id="magicoon-Light" xmlns="http://www.w3.org/2000/svg" viewBox="0 0 24 24"><defs><style>.cls-1{fill:#41416e;}</style></defs><title>film</title><g id="film-Light"><path id="film-Light-2" data-name="film-Light" class="cls-1" d="M17,2.5H7A4.5,4.5,0,0,0,2.5,7V17A4.505,4.505,0,0,0,7,21.5H17A4.505,4.505,0,0,0,21.5,17V7A4.5,4.5,0,0,0,17,2.5Zm.5,10h3v3h-3Zm0-4h3v3h-3Zm3-1.5v.5h-3V3.55A3.5,3.5,0,0,1,20.5,7Zm-4-3.5v8h-9v-8Zm-10,12h-3v-3h3Zm-3-4v-3h3v3Zm3-7.95V7.5h-3V7A3.5,3.5,0,0,1,6.5,3.55ZM3.5,17v-.5h3v3.949A3.494,3.494,0,0,1,3.5,17Zm4,3.5v-8h9v8Zm10-.051V16.5h3V17A3.494,3.494,0,0,1,17.5,20.449Z"/></g></svg>