<svg id="magicoon-Light" xmlns="http://www.w3.org/2000/svg" viewBox="0 0 24 24"><defs><style>.cls-1{fill:#41416e;}</style></defs><title>filter</title><g id="filter-Light"><path id="filter-Light-2" data-name="filter-Light" class="cls-1" d="M18.5,2.5H5.5a2,2,0,0,0-2,2V6.586a1.49,1.49,0,0,0,.439,1.06l5.122,5.121A1.493,1.493,0,0,1,9.5,13.828V21a.5.5,0,0,0,.276.447A.508.508,0,0,0,10,21.5a.5.5,0,0,0,.3-.1l4-3a.5.5,0,0,0,.2-.4V13.828a1.493,1.493,0,0,1,.439-1.061l5.122-5.121a1.49,1.49,0,0,0,.439-1.06V4.5A2,2,0,0,0,18.5,2.5Zm-13,1h13a1,1,0,0,1,1,1v2H4.5v-2A1,1,0,0,1,5.5,3.5Zm8.732,8.56a2.484,2.484,0,0,0-.732,1.768V17.75L10.5,20V13.828a2.484,2.484,0,0,0-.732-1.768L5.207,7.5H18.793Z"/></g></svg>