<svg id="magicoon-Light" xmlns="http://www.w3.org/2000/svg" viewBox="0 0 24 24"><defs><style>.cls-1{fill:#41416e;}</style></defs><title>folder</title><g id="folder-Light"><path id="folder-Light-2" data-name="folder-Light" class="cls-1" d="M17.019,7.5h-4.2a1,1,0,0,1-.832-.445L10.88,5.391A2,2,0,0,0,9.216,4.5h-2.2A4.5,4.5,0,0,0,2.519,9v7a4.5,4.5,0,0,0,4.5,4.5h10a4.505,4.505,0,0,0,4.5-4.5V12A4.505,4.505,0,0,0,17.019,7.5Zm3.5,8.5a3.5,3.5,0,0,1-3.5,3.5h-10a3.5,3.5,0,0,1-3.5-3.5V9a3.5,3.5,0,0,1,3.5-3.5h2.2a1,1,0,0,1,.832.445l1.109,1.664a2,2,0,0,0,1.664.891h4.2a3.5,3.5,0,0,1,3.5,3.5Z"/></g></svg>