<svg id="magicoon-Light" xmlns="http://www.w3.org/2000/svg" viewBox="0 0 24 24"><defs><style>.cls-1{fill:#41416e;}</style></defs><title>headphones</title><g id="headphones-Light"><path id="headphones-Light-2" data-name="headphones-Light" class="cls-1" d="M16.5,13.5a2,2,0,0,0-2,2v4a2,2,0,0,0,4,0v-4A2,2,0,0,0,16.5,13.5Zm1,6a1,1,0,0,1-2,0v-4a1,1,0,0,1,2,0Zm-10-6a2,2,0,0,0-2,2v4a2,2,0,0,0,4,0v-4A2,2,0,0,0,7.5,13.5Zm1,6a1,1,0,0,1-2,0v-4a1,1,0,0,1,2,0Zm13-7.5v5a.5.5,0,0,1-1,0V12a8.5,8.5,0,0,0-17,0v5a.5.5,0,0,1-1,0V12a9.5,9.5,0,0,1,19,0Z"/></g></svg>