<svg id="magicoon-Light" xmlns="http://www.w3.org/2000/svg" viewBox="0 0 24 24"><defs><style>.cls-1{fill:#41416e;}</style></defs><title>home</title><g id="home-Light"><path id="home-Light-2" data-name="home-Light" class="cls-1" d="M19.822,7.509l-5-4.02a4.533,4.533,0,0,0-5.643,0l-5,4.02A4.472,4.472,0,0,0,2.5,11.01V17A4.5,4.5,0,0,0,7,21.5H9.5V17a2.5,2.5,0,0,1,5,0V21.5H17A4.5,4.5,0,0,0,21.5,17V11.01A4.472,4.472,0,0,0,19.822,7.509ZM20.5,17A3.5,3.5,0,0,1,17,20.5H15.5V17a3.5,3.5,0,0,0-7,0V20.5H7A3.5,3.5,0,0,1,3.5,17V11.01a3.477,3.477,0,0,1,1.3-2.722l5-4.02a3.527,3.527,0,0,1,4.39,0l5,4.02a3.477,3.477,0,0,1,1.3,2.722Z"/></g></svg>