<svg id="magicoon-Light" xmlns="http://www.w3.org/2000/svg" viewBox="0 0 24 24"><defs><style>.cls-1{fill:#41416e;}</style></defs><title>image</title><g id="image-Light"><path id="image-Light-2" data-name="image-Light" class="cls-1" d="M17,3.5H7A4.505,4.505,0,0,0,2.5,8v8a4.476,4.476,0,0,0,.117.989.518.518,0,0,0,.041.132A4.5,4.5,0,0,0,7,20.5H17A4.505,4.505,0,0,0,21.5,16V8A4.505,4.505,0,0,0,17,3.5ZM7,4.5H17A3.5,3.5,0,0,1,20.5,8v5.793L16.063,9.356a1.505,1.505,0,0,0-2.126,0L9,14.3l-.94-.94a1.543,1.543,0,0,0-2.126,0L3.5,15.793V8A3.5,3.5,0,0,1,7,4.5Zm10,15H7a3.492,3.492,0,0,1-3.326-2.467l2.97-2.97a.52.52,0,0,1,.712,0L8.3,15A1,1,0,0,0,9.7,15l4.94-4.94a.5.5,0,0,1,.712,0L20.5,15.207V16A3.5,3.5,0,0,1,17,19.5ZM7,9a1,1,0,1,1,1,1A1,1,0,0,1,7,9Z"/></g></svg>