<svg id="magicoon-Light" xmlns="http://www.w3.org/2000/svg" viewBox="0 0 24 24"><defs><style>.cls-1{fill:#41416e;}</style></defs><title>inbox</title><g id="inbox-Light"><path id="inbox-Light-2" data-name="inbox-Light" class="cls-1" d="M7.5,10A.5.5,0,0,1,8,9.5h8a.5.5,0,0,1,0,1H8A.5.5,0,0,1,7.5,10ZM9,7.5h6a.5.5,0,0,0,0-1H9a.5.5,0,0,0,0,1Zm12.5,5.987V16A4.505,4.505,0,0,1,17,20.5H7A4.505,4.505,0,0,1,2.5,16V13.487a3.5,3.5,0,0,1,.18-1.107l1.934-5.8A4.494,4.494,0,0,1,8.883,3.5h6.234a4.494,4.494,0,0,1,4.269,3.076l1.934,5.8A3.5,3.5,0,0,1,21.5,13.487ZM3.693,12.5H9a.5.5,0,0,1,.5.5,2.5,2.5,0,0,0,5,0,.5.5,0,0,1,.5-.5h5.307l-1.87-5.607A3.494,3.494,0,0,0,15.117,4.5H8.883A3.5,3.5,0,0,0,5.562,6.893ZM20.5,16V13.5H15.464a3.5,3.5,0,0,1-6.928,0H3.5V16A3.5,3.5,0,0,0,7,19.5H17A3.5,3.5,0,0,0,20.5,16Z"/></g></svg>