<svg id="magicoon-Light" xmlns="http://www.w3.org/2000/svg" viewBox="0 0 24 24"><defs><style>.cls-1{fill:#41416e;}</style></defs><title>link</title><g id="link-Light"><path id="link-Light-2" data-name="link-Light" class="cls-1" d="M20.191,10.113l-1.839,1.84a.5.5,0,0,1-.707-.707l1.839-1.84a3.464,3.464,0,0,0,0-4.893,3.541,3.541,0,0,0-4.891,0l-3.359,3.36a2.549,2.549,0,0,0-.334.4,3.432,3.432,0,0,0,.334,4.495.5.5,0,1,1-.707.707,4.415,4.415,0,0,1-.449-5.77,3.389,3.389,0,0,1,.449-.537l3.359-3.36a4.459,4.459,0,0,1,6.305,6.307Zm-7.425.413a.5.5,0,0,0,0,.707,3.418,3.418,0,0,1,.809,3.609,3.319,3.319,0,0,1-.809,1.284l-3.359,3.36a3.539,3.539,0,0,1-4.891,0,3.463,3.463,0,0,1,0-4.892l1.839-1.841a.5.5,0,0,0-.707-.707l-1.839,1.84a4.459,4.459,0,1,0,6.305,6.307l3.359-3.36a4.3,4.3,0,0,0,1.047-1.664,4.461,4.461,0,0,0-1.047-4.643A.5.5,0,0,0,12.766,10.526Z"/></g></svg>