<svg id="magicoon-Light" xmlns="http://www.w3.org/2000/svg" viewBox="0 0 24 24"><defs><style>.cls-1{fill:#41416e;}</style></defs><title>lock</title><g id="lock-Light"><path id="lock-Light-2" data-name="lock-Light" class="cls-1" d="M16.5,9.776V7a4.5,4.5,0,0,0-9,0V9.776A4.493,4.493,0,0,0,4.5,14v3A4.505,4.505,0,0,0,9,21.5h6A4.505,4.505,0,0,0,19.5,17V14A4.493,4.493,0,0,0,16.5,9.776ZM8.5,7a3.5,3.5,0,0,1,7,0V9.55A4.576,4.576,0,0,0,15,9.5H9a4.576,4.576,0,0,0-.5.05Zm10,10A3.5,3.5,0,0,1,15,20.5H9A3.5,3.5,0,0,1,5.5,17V14A3.5,3.5,0,0,1,9,10.5h6A3.5,3.5,0,0,1,18.5,14Zm-6-2v2a.5.5,0,0,1-1,0V15a.5.5,0,0,1,1,0Z"/></g></svg>