<svg id="magicoon-Light" xmlns="http://www.w3.org/2000/svg" viewBox="0 0 24 24"><defs><style>.cls-1{fill:#41416e;}</style></defs><title>log-out</title><g id="log-out-Light"><path id="log-out-Light-2" data-name="log-out-Light" class="cls-1" d="M12.5,21a.5.5,0,0,1-.5.5H8A4.505,4.505,0,0,1,3.5,17V7A4.505,4.505,0,0,1,8,2.5h4a.5.5,0,0,1,0,1H8A3.5,3.5,0,0,0,4.5,7V17A3.5,3.5,0,0,0,8,20.5h4A.5.5,0,0,1,12.5,21Zm7.854-9.354-4-4a.5.5,0,0,0-.708.708L18.793,11.5H10a.5.5,0,0,0,0,1h8.793l-3.147,3.146a.5.5,0,0,0,.708.708l4-4A.5.5,0,0,0,20.354,11.646Z"/></g></svg>