<svg id="magicoon-Light" xmlns="http://www.w3.org/2000/svg" viewBox="0 0 24 24"><defs><style>.cls-1{fill:#41416e;}</style></defs><title>log-in</title><g id="log-in-Light"><path id="log-in-Light-2" data-name="log-in-Light" class="cls-1" d="M20.5,7V17A4.505,4.505,0,0,1,16,21.5H12a.5.5,0,0,1,0-1h4A3.5,3.5,0,0,0,19.5,17V7A3.5,3.5,0,0,0,16,3.5H12a.5.5,0,0,1,0-1h4A4.505,4.505,0,0,1,20.5,7Zm-6.146,4.646-4-4a.5.5,0,0,0-.708.708L12.793,11.5H4a.5.5,0,0,0,0,1h8.793L9.646,15.646a.5.5,0,0,0,.708.708l4-4A.5.5,0,0,0,14.354,11.646Z"/></g></svg>