<svg id="magicoon-Light" xmlns="http://www.w3.org/2000/svg" viewBox="0 0 24 24"><defs><style>.cls-1{fill:#41416e;}</style></defs><title>map-pin</title><g id="map-pin-Light"><path id="map-pin-Light-2" data-name="map-pin-Light" class="cls-1" d="M11.5,12.449V17a.5.5,0,0,0,1,0V12.449a5,5,0,1,0-1,0ZM12,3.5a4,4,0,1,1-4,4A4,4,0,0,1,12,3.5ZM19.5,18c0,2-3.224,3.5-7.5,3.5S4.5,20,4.5,18c0-1.446,1.645-2.642,4.4-3.2a.5.5,0,1,1,.2.98c-2.153.436-3.6,1.328-3.6,2.22,0,1.182,2.669,2.5,6.5,2.5s6.5-1.318,6.5-2.5c0-.892-1.446-1.784-3.6-2.22a.5.5,0,1,1,.2-.98C17.855,15.358,19.5,16.554,19.5,18Z"/></g></svg>