<svg id="magicoon-Light" xmlns="http://www.w3.org/2000/svg" viewBox="0 0 24 24"><defs><style>.cls-1{fill:#41416e;}</style></defs><title>map-marker</title><g id="map-marker-Light"><path id="map-marker-Light-2" data-name="map-marker-Light" class="cls-1" d="M12,6.5A3.5,3.5,0,1,0,15.5,10,3.5,3.5,0,0,0,12,6.5Zm0,6A2.5,2.5,0,1,1,14.5,10,2.5,2.5,0,0,1,12,12.5Zm0-10A7.334,7.334,0,0,0,4.5,10c0,6.088,4.659,9.891,6.661,11.243a1.484,1.484,0,0,0,1.668,0C14.835,19.889,19.5,16.082,19.5,10A7.337,7.337,0,0,0,12,2.5Zm.274,17.915a.485.485,0,0,1-.549,0C10.262,19.429,5.5,15.766,5.5,10A6.355,6.355,0,0,1,12,3.5,6.359,6.359,0,0,1,18.5,10C18.5,15.6,14.143,19.15,12.27,20.415Z"/></g></svg>