<svg id="magicoon-Light" xmlns="http://www.w3.org/2000/svg" viewBox="0 0 24 24"><defs><style>.cls-1{fill:#41416e;}</style></defs><title>map</title><g id="map-Light"><path id="map-Light-2" data-name="map-Light" class="cls-1" d="M20.283,3.888A2.446,2.446,0,0,0,17.877,3.8L15.666,4.934a1.459,1.459,0,0,1-1.332,0L10.123,2.772A2.457,2.457,0,0,0,9.012,2.5L9,2.5l-.012,0a2.457,2.457,0,0,0-1.111.27L4.43,4.542a3.571,3.571,0,0,0-1.93,3.2V17.919a2.544,2.544,0,0,0,1.217,2.192,2.444,2.444,0,0,0,2.406.09l2.211-1.135a1.45,1.45,0,0,1,1.332,0l4.211,2.162a2.444,2.444,0,0,0,1.106.268c.006,0,.011,0,.017,0s.011,0,.017,0a2.444,2.444,0,0,0,1.106-.268l3.447-1.77a3.572,3.572,0,0,0,1.93-3.2V6.08A2.547,2.547,0,0,0,20.283,3.888ZM7.877,18.176,5.666,19.311a1.428,1.428,0,0,1-1.427-.053A1.552,1.552,0,0,1,3.5,17.919V7.742A2.576,2.576,0,0,1,4.887,5.431l3.447-1.77A1.437,1.437,0,0,1,8.5,3.6V17.964A2.428,2.428,0,0,0,7.877,18.176Zm2.246,0a2.428,2.428,0,0,0-.623-.212V3.6a1.437,1.437,0,0,1,.166.061l4.211,2.162a2.43,2.43,0,0,0,.623.213V20.4a1.437,1.437,0,0,1-.166-.061ZM20.5,16.258a2.575,2.575,0,0,1-1.387,2.31l-3.447,1.77a1.657,1.657,0,0,1-.166.062V6.036a2.43,2.43,0,0,0,.623-.213l2.211-1.135a1.428,1.428,0,0,1,1.427.054A1.55,1.55,0,0,1,20.5,6.08Z"/></g></svg>