<svg id="magicoon-Light" xmlns="http://www.w3.org/2000/svg" viewBox="0 0 24 24"><defs><style>.cls-1{fill:#41416e;}</style></defs><title>microphone-slash</title><g id="microphone-slash-Light"><path id="microphone-slash-Light-2" data-name="microphone-slash-Light" class="cls-1" d="M12,15.5A4.505,4.505,0,0,0,16.5,11V8.207l3.854-3.854a.5.5,0,0,0-.708-.707l-4,4h0l-12,12a.5.5,0,1,0,.708.707l3.287-3.287A7.427,7.427,0,0,0,11.5,18.457V20.5H8a.5.5,0,0,0,0,1h8a.5.5,0,0,0,0-1H12.5V18.474A7.5,7.5,0,0,0,19.5,11a.5.5,0,0,0-1,0A6.462,6.462,0,0,1,8.357,16.349L9.8,14.906A4.465,4.465,0,0,0,12,15.5ZM15.5,11A3.5,3.5,0,0,1,12,14.5a3.445,3.445,0,0,1-1.462-.331L15.5,9.207ZM7.61,12a4.922,4.922,0,0,1-.11-1V7a4.5,4.5,0,0,1,8.191-2.565.5.5,0,0,1-.822.57A3.5,3.5,0,0,0,8.5,7v4a3.877,3.877,0,0,0,.09.8.5.5,0,0,1-.388.591.521.521,0,0,1-.1.011A.5.5,0,0,1,7.61,12Zm-2.274,2.45A7.5,7.5,0,0,1,4.5,11a.5.5,0,0,1,1,0,6.5,6.5,0,0,0,.723,2.989.5.5,0,0,1-.212.674.493.493,0,0,1-.231.057A.5.5,0,0,1,5.336,14.451Z"/></g></svg>