<svg id="magicoon-Light" xmlns="http://www.w3.org/2000/svg" viewBox="0 0 24 24"><defs><style>.cls-1{fill:#41416e;}</style></defs><title>microphone</title><g id="microphone-Light"><path id="microphone-Light-2" data-name="microphone-Light" class="cls-1" d="M12,15.5A4.505,4.505,0,0,0,16.5,11V7a4.5,4.5,0,0,0-9,0v4A4.505,4.505,0,0,0,12,15.5ZM8.5,7a3.5,3.5,0,0,1,7,0v4a3.5,3.5,0,0,1-7,0Zm4,11.474V20.5H16a.5.5,0,0,1,0,1H8a.5.5,0,0,1,0-1h3.5V18.474A7.5,7.5,0,0,1,4.5,11a.5.5,0,0,1,1,0,6.5,6.5,0,0,0,13,0,.5.5,0,0,1,1,0A7.5,7.5,0,0,1,12.5,18.474Z"/></g></svg>