<svg id="magicoon-Light" xmlns="http://www.w3.org/2000/svg" viewBox="0 0 24 24"><defs><style>.cls-1{fill:#41416e;}</style></defs><title>mobile</title><g id="mobile-Light"><path id="mobile-Light-2" data-name="mobile-Light" class="cls-1" d="M14,2.5H10A4.5,4.5,0,0,0,5.5,7V17A4.505,4.505,0,0,0,10,21.5h4A4.505,4.505,0,0,0,18.5,17V7A4.5,4.5,0,0,0,14,2.5ZM17.5,17A3.5,3.5,0,0,1,14,20.5H10A3.5,3.5,0,0,1,6.5,17V7A3.5,3.5,0,0,1,10,3.5h4A3.5,3.5,0,0,1,17.5,7Zm-4,1a.5.5,0,0,1-.5.5H11a.5.5,0,0,1,0-1h2A.5.5,0,0,1,13.5,18Z"/></g></svg>