<svg id="magicoon-Light" xmlns="http://www.w3.org/2000/svg" viewBox="0 0 24 24"><defs><style>.cls-1{fill:#41416e;}</style></defs><title>more-v-circle</title><g id="more-v-circle-Light"><path id="more-v-circle-Light-2" data-name="more-v-circle-Light" class="cls-1" d="M13,16.5a1,1,0,1,1-1-1A1,1,0,0,1,13,16.5ZM12,11a1,1,0,1,0,1,1A1,1,0,0,0,12,11Zm0-4.5a1,1,0,1,0,1,1A1,1,0,0,0,12,6.5ZM21.5,12A9.5,9.5,0,1,1,12,2.5,9.511,9.511,0,0,1,21.5,12Zm-1,0A8.5,8.5,0,1,0,12,20.5,8.51,8.51,0,0,0,20.5,12Z"/></g></svg>