<svg id="magicoon-Light" xmlns="http://www.w3.org/2000/svg" viewBox="0 0 24 24"><defs><style>.cls-1{fill:#41416e;}</style></defs><title>package</title><g id="package-Light"><path id="package-Light-2" data-name="package-Light" class="cls-1" d="M18.715,4.938l-4.4-1.953a5.786,5.786,0,0,0-4.632,0l-4.4,1.953A4.453,4.453,0,0,0,2.5,8.974v6.049a4.453,4.453,0,0,0,2.785,4.036l4.4,1.954a5.729,5.729,0,0,0,2.3.482c.006,0,.012,0,.019,0s.013,0,.019,0a5.729,5.729,0,0,0,2.3-.482l4.4-1.954A4.453,4.453,0,0,0,21.5,15.023V8.974A4.453,4.453,0,0,0,18.715,4.938ZM10.09,3.9a4.771,4.771,0,0,1,3.82,0l4.4,1.954a4.019,4.019,0,0,1,1.156.78L16.5,7.952,8.732,4.5Zm-4.4,1.954,1.809-.8L15.267,8.5,13.3,9.372a3.379,3.379,0,0,1-2.608,0L4.535,6.633A4.019,4.019,0,0,1,5.691,5.853Zm0,12.292A3.468,3.468,0,0,1,3.5,15.023V8.974a3.144,3.144,0,0,1,.4-1.526l6.385,2.838a4.174,4.174,0,0,0,1.21.3v9.858a4.659,4.659,0,0,1-1.409-.347ZM20.5,15.023a3.468,3.468,0,0,1-2.191,3.122l-4.4,1.954a4.659,4.659,0,0,1-1.409.347V10.588a4.174,4.174,0,0,0,1.21-.3L20.1,7.448A3.144,3.144,0,0,1,20.5,8.974Z"/></g></svg>