<svg id="magicoon-Light" xmlns="http://www.w3.org/2000/svg" viewBox="0 0 24 24"><defs><style>.cls-1{fill:#41416e;}</style></defs><title>paperclip</title><g id="paperclip-Light"><path id="paperclip-Light-2" data-name="paperclip-Light" class="cls-1" d="M20.362,14.383l-5.028,5.042A7.137,7.137,0,0,1,10.313,21.5a6.765,6.765,0,0,1-4.832-1.98,7.008,7.008,0,0,1,.095-9.877L11.3,3.9a4.757,4.757,0,0,1,6.741,0,4.791,4.791,0,0,1,0,6.756L12.29,16.427a2.69,2.69,0,0,1-3.725,0,2.648,2.648,0,0,1,0-3.731l5.056-5.069a.5.5,0,1,1,.708.706L9.273,13.4a1.646,1.646,0,0,0,0,2.319,1.668,1.668,0,0,0,2.309,0L17.337,9.95a3.789,3.789,0,0,0,0-5.344,3.849,3.849,0,0,0-5.325,0L6.284,10.349a6.081,6.081,0,0,0-.095,8.465A5.774,5.774,0,0,0,10.313,20.5a6.127,6.127,0,0,0,4.313-1.781l5.028-5.042a.5.5,0,0,1,.708.706Z"/></g></svg>