<svg id="magicoon-Light" xmlns="http://www.w3.org/2000/svg" viewBox="0 0 24 24"><defs><style>.cls-1{fill:#41416e;}</style></defs><title>pen</title><g id="pen-Light"><path id="pen-Light-2" data-name="pen-Light" class="cls-1" d="M20.305,3.7a4.08,4.08,0,0,0-5.77,0L4,14.228a2.481,2.481,0,0,0-.7,1.357l-.79,4.738a1.013,1.013,0,0,0,1.162,1.163l4.739-.79A2.481,2.481,0,0,0,9.771,20L20.305,9.465a4.08,4.08,0,0,0,0-5.77ZM9.064,19.291a1.493,1.493,0,0,1-.813.419L3.5,20.488l.79-4.739a1.489,1.489,0,0,1,.419-.814l8.26-8.26,4.355,4.356ZM19.6,8.758l-1.567,1.566L13.676,5.968,15.242,4.4A3.08,3.08,0,0,1,19.6,8.758Z"/></g></svg>