<svg id="magicoon-Light" xmlns="http://www.w3.org/2000/svg" viewBox="0 0 24 24"><defs><style>.cls-1{fill:#41416e;}</style></defs><title>phone</title><g id="phone-Light"><path id="phone-Light-2" data-name="phone-Light" class="cls-1" d="M21.44,16.643a3.288,3.288,0,0,0-.075-.333,1.471,1.471,0,0,0-1.186-1.033l-4.332-.721a1.5,1.5,0,0,0-1.431.549c-.051.065-.1.131-.145.2a.544.544,0,0,1-.671.222A9.861,9.861,0,0,1,8.473,10.4a.537.537,0,0,1,.218-.666c.089-.061.175-.125.26-.193a1.514,1.514,0,0,0,.541-1.411L8.821,3.872a1.486,1.486,0,0,0-1-1.19,3.4,3.4,0,0,0-.474-.119A4.029,4.029,0,0,0,4,3.493,4.281,4.281,0,0,0,2.5,6.867,15.044,15.044,0,0,0,17.132,21.5h.116a4.276,4.276,0,0,0,3.241-1.489A4.073,4.073,0,0,0,21.44,16.643Zm-1.708,2.713A3.233,3.233,0,0,1,17.159,20.5,14.042,14.042,0,0,1,3.5,6.84,3.287,3.287,0,0,1,4.65,4.251,3.062,3.062,0,0,1,6.645,3.5a3.025,3.025,0,0,1,.526.047,2.332,2.332,0,0,1,.335.084.492.492,0,0,1,.327.4L8.5,8.283a.51.51,0,0,1-.182.477c-.062.051-.127.1-.194.144A1.531,1.531,0,0,0,7.556,10.8,10.861,10.861,0,0,0,13.2,16.442a1.54,1.54,0,0,0,1.9-.576c.033-.048.068-.1.105-.143a.5.5,0,0,1,.481-.181l4.332.722a.466.466,0,0,1,.387.316c.02.069.037.147.053.234A3.072,3.072,0,0,1,19.732,19.356Z"/></g></svg>