<svg id="magicoon-Light" xmlns="http://www.w3.org/2000/svg" viewBox="0 0 24 24"><defs><style>.cls-1{fill:#41416e;}</style></defs><title>plus-square</title><g id="plus-square-Light"><path id="plus-square-Light-2" data-name="plus-square-Light" class="cls-1" d="M15,2.5H9A6.508,6.508,0,0,0,2.5,9v6A6.508,6.508,0,0,0,9,21.5h6A6.508,6.508,0,0,0,21.5,15V9A6.508,6.508,0,0,0,15,2.5ZM20.5,15A5.506,5.506,0,0,1,15,20.5H9A5.506,5.506,0,0,1,3.5,15V9A5.506,5.506,0,0,1,9,3.5h6A5.506,5.506,0,0,1,20.5,9Zm-4-3a.5.5,0,0,1-.5.5H12.5V16a.5.5,0,0,1-1,0V12.5H8a.5.5,0,0,1,0-1h3.5V8a.5.5,0,0,1,1,0v3.5H16A.5.5,0,0,1,16.5,12Z"/></g></svg>