<svg id="magicoon-Light" xmlns="http://www.w3.org/2000/svg" viewBox="0 0 24 24"><defs><style>.cls-1{fill:#41416e;}</style></defs><title>question-circle</title><g id="question-circle-Light"><path id="question-circle-Light-2" data-name="question-circle-Light" class="cls-1" d="M12,2.5A9.5,9.5,0,1,0,21.5,12,9.511,9.511,0,0,0,12,2.5Zm0,18A8.5,8.5,0,1,1,20.5,12,8.51,8.51,0,0,1,12,20.5ZM15.445,9.369a3.371,3.371,0,0,1-1.681,3.53c-.921.611-1.21,1.023-1.29,1.26a.5.5,0,1,1-.947-.319,3.873,3.873,0,0,1,1.683-1.774,2.407,2.407,0,0,0,1.25-2.524A2.5,2.5,0,0,0,9.5,10a.5.5,0,0,1-1,0,3.5,3.5,0,0,1,6.945-.631ZM12.75,17a.75.75,0,1,1-.75-.75A.75.75,0,0,1,12.75,17Z"/></g></svg>