<svg id="magicoon-Light" xmlns="http://www.w3.org/2000/svg" viewBox="0 0 24 24"><defs><style>.cls-1{fill:#41416e;}</style></defs><title>send</title><g id="send-Light"><path id="send-Light-2" data-name="send-Light" class="cls-1" d="M20.75,3.249a2.535,2.535,0,0,0-2.425-.671L5.212,5.856a3.581,3.581,0,0,0,.048,6.959l4.8,1.129,1.129,4.8a3.533,3.533,0,0,0,3.46,2.76h.024a3.532,3.532,0,0,0,3.475-2.713L21.422,5.675A2.532,2.532,0,0,0,20.75,3.249Zm-.3,2.183L17.174,18.545a2.518,2.518,0,0,1-2.5,1.955h-.018a2.518,2.518,0,0,1-2.493-1.99l-1.136-4.826,4.331-4.331a.5.5,0,0,0-.708-.707l-4.33,4.331L5.49,11.841A2.518,2.518,0,0,1,3.5,9.347,2.518,2.518,0,0,1,5.455,6.826L18.567,3.548A1.576,1.576,0,0,1,18.95,3.5a1.556,1.556,0,0,1,1.5,1.932Z"/></g></svg>