<svg id="magicoon-Light" xmlns="http://www.w3.org/2000/svg" viewBox="0 0 24 24"><defs><style>.cls-1{fill:#41416d;}</style></defs><title>settings</title><g id="settings-Light"><path id="settings-Light-2" data-name="settings-Light" class="cls-1" d="M12.015,15.5A3.5,3.5,0,1,1,15.5,11.985,3.5,3.5,0,0,1,12.015,15.5Zm-.025-6a2.5,2.5,0,1,0,2.51,2.49A2.5,2.5,0,0,0,11.99,9.5Zm.55,12-1,0A2,2,0,0,1,9.531,19.51a.61.61,0,0,0-.378-.569l-.007,0a.579.579,0,0,0-.631.128,2.008,2.008,0,0,1-2.85.033l-.708-.7a2,2,0,0,1-.008-2.833.621.621,0,0,0,.129-.667v0a.584.584,0,0,0-.541-.363A2.007,2.007,0,0,1,2.5,12.54l0-1A2,2,0,0,1,4.49,9.531a.61.61,0,0,0,.569-.378l0-.007a.582.582,0,0,0-.128-.631A2.009,2.009,0,0,1,4.9,5.665l.705-.711a2,2,0,0,1,2.829-.012.609.609,0,0,0,.669.137.581.581,0,0,0,.365-.541A2.008,2.008,0,0,1,11.46,2.5l1,0A2,2,0,0,1,14.469,4.49a.592.592,0,0,0,.369.564h0a.616.616,0,0,0,.654-.121,1.992,1.992,0,0,1,1.425-.609h0a1.989,1.989,0,0,1,1.417.58l.708.7a2,2,0,0,1,.012,2.829.6.6,0,0,0-.143.657l.007.014a.579.579,0,0,0,.54.363A2.008,2.008,0,0,1,21.5,11.46l0,1a2,2,0,0,1-1.992,2.009.592.592,0,0,0-.564.369h0a.618.618,0,0,0,.121.654,2,2,0,0,1,.029,2.845l-.7.708a2,2,0,0,1-2.829.012.6.6,0,0,0-.657-.143.6.6,0,0,0-.377.547A2.008,2.008,0,0,1,12.54,21.5ZM9.581,18.039a1.612,1.612,0,0,1,.95,1.439,1.008,1.008,0,0,0,1,1.024l1,0a1,1,0,0,0,1-1,1.62,1.62,0,0,1,.993-1.5,1.58,1.58,0,0,1,1.724.335,1.009,1.009,0,0,0,1.436.015l.7-.708a1,1,0,0,0-.008-1.417,1.621,1.621,0,0,1-.364-1.74l0-.011,0-.013a1.574,1.574,0,0,1,1.457-.984,1.008,1.008,0,0,0,1.022-1l0-1a1,1,0,0,0-1-1A1.589,1.589,0,0,1,18,9.5l0-.007a1.586,1.586,0,0,1,.33-1.737,1.008,1.008,0,0,0,.015-1.436l-.708-.7a1,1,0,0,0-.709-.29h0a.99.99,0,0,0-.707.3,1.621,1.621,0,0,1-1.74.364l-.011,0-.013,0a1.574,1.574,0,0,1-.984-1.457,1.008,1.008,0,0,0-1-1.022l-1,0a1,1,0,0,0-1,1A1.588,1.588,0,0,1,9.489,6a1.612,1.612,0,0,1-1.737-.33,1.009,1.009,0,0,0-1.436-.015l-.7.711a1,1,0,0,0,.006,1.415,1.59,1.59,0,0,1,.37,1.742.464.464,0,0,1-.026.055,1.612,1.612,0,0,1-1.439.95,1.008,1.008,0,0,0-1.024,1l0,1a1,1,0,0,0,1,1A1.585,1.585,0,0,1,6,14.506l0,.01,0,.011a1.617,1.617,0,0,1-.337,1.731,1,1,0,0,0-.009,1.429l.708.7a1,1,0,0,0,1.415-.006,1.59,1.59,0,0,1,1.742-.37A.464.464,0,0,1,9.581,18.039Z"/></g></svg>