<svg id="magicoon-Light" xmlns="http://www.w3.org/2000/svg" viewBox="0 0 24 24"><defs><style>.cls-1{fill:#41416e;}</style></defs><title>shield</title><g id="shield-Light"><path id="shield-Light-2" data-name="shield-Light" class="cls-1" d="M20.158,6.526C17.232,5.55,13.3,3.594,12.372,2.649A.5.5,0,0,0,12.02,2.5a.515.515,0,0,0-.355.144,20.247,20.247,0,0,1-7.8,4.005A.5.5,0,0,0,3.5,7.13c0,8.271,1.208,12.306,8.364,14.351a.5.5,0,0,0,.274,0C19.293,19.436,20.5,15.361,20.5,7A.5.5,0,0,0,20.158,6.526ZM12,20.479C5.65,18.619,4.535,15.094,4.5,7.505a22.234,22.234,0,0,0,7.523-3.837A32.632,32.632,0,0,0,19.5,7.357C19.467,15.049,18.356,18.617,12,20.479Z"/></g></svg>