<svg id="magicoon-Light" xmlns="http://www.w3.org/2000/svg" viewBox="0 0 24 24"><defs><style>.cls-1{fill:#41416e;}</style></defs><title>shopping-basket</title><g id="shopping-basket-Light"><path id="shopping-basket-Light-2" data-name="shopping-basket-Light" class="cls-1" d="M10.5,15v3a.5.5,0,0,1-1,0V15a.5.5,0,0,1,1,0Zm3.5-.5a.5.5,0,0,0-.5.5v3a.5.5,0,0,0,1,0V15A.5.5,0,0,0,14,14.5Zm5.965-2.2-.783,6.138A3.507,3.507,0,0,1,15.71,21.5h-7.4a3.509,3.509,0,0,1-3.47-3.045l-.806-6.15A2.5,2.5,0,0,1,5,7.5H6.717L9.571,2.742a.5.5,0,0,1,.858.515L7.883,7.5h8.234L13.571,3.257a.5.5,0,0,1,.858-.515L17.283,7.5H19a2.5,2.5,0,0,1,.965,4.805ZM18.19,18.316l.742-5.816H5.07l.763,5.825A2.508,2.508,0,0,0,8.312,20.5h7.4A2.506,2.506,0,0,0,18.19,18.316ZM20.5,10A1.5,1.5,0,0,0,19,8.5H5a1.5,1.5,0,0,0,0,3H19A1.5,1.5,0,0,0,20.5,10Z"/></g></svg>