<svg id="magicoon-Light" xmlns="http://www.w3.org/2000/svg" viewBox="0 0 24 24"><defs><style>.cls-1{fill:#41416e;}</style></defs><title>sliders-h</title><g id="sliders-h-Light"><path id="sliders-h-Light-2" data-name="sliders-h-Light" class="cls-1" d="M8.5,4A3,3,0,0,0,5.551,6.5H3a.5.5,0,0,0,0,1H5.551A3,3,0,1,0,8.5,4Zm0,5a2,2,0,1,1,2-2A2,2,0,0,1,8.5,9Zm6-2a.5.5,0,0,1,.5-.5h6a.5.5,0,0,1,0,1H15A.5.5,0,0,1,14.5,7ZM21,16.5H18.449a3,3,0,1,0,0,1H21a.5.5,0,0,0,0-1ZM15.5,19a2,2,0,1,1,2-2A2,2,0,0,1,15.5,19Zm-6-2a.5.5,0,0,1-.5.5H3a.5.5,0,0,1,0-1H9A.5.5,0,0,1,9.5,17Z"/></g></svg>