<svg id="magicoon-Light" xmlns="http://www.w3.org/2000/svg" viewBox="0 0 24 24"><defs><style>.cls-1{fill:#41416e;}</style></defs><title>sort-descending</title><g id="sort-descending-Light"><path id="sort-descending-Light-2" data-name="sort-descending-Light" class="cls-1" d="M12,2.5A9.5,9.5,0,1,0,21.5,12,9.511,9.511,0,0,0,12,2.5Zm0,18A8.5,8.5,0,1,1,20.5,12,8.51,8.51,0,0,1,12,20.5ZM16.5,8a.5.5,0,0,1-.5.5H8a.5.5,0,0,1,0-1h8A.5.5,0,0,1,16.5,8ZM15,12a.5.5,0,0,1-.5.5h-5a.5.5,0,0,1,0-1h5A.5.5,0,0,1,15,12Zm-1.5,4a.5.5,0,0,1-.5.5H11a.5.5,0,0,1,0-1h2A.5.5,0,0,1,13.5,16Z"/></g></svg>