<svg id="magicoon-Light" xmlns="http://www.w3.org/2000/svg" viewBox="0 0 24 24"><defs><style>.cls-1{fill:#41416e;}</style></defs><title>sort-ascending</title><g id="sort-ascending-Light"><path id="sort-ascending-Light-2" data-name="sort-ascending-Light" class="cls-1" d="M12,2.5A9.5,9.5,0,1,0,21.5,12,9.511,9.511,0,0,0,12,2.5Zm0,18A8.5,8.5,0,1,1,20.5,12,8.51,8.51,0,0,1,12,20.5ZM16.5,16a.5.5,0,0,1-.5.5H8a.5.5,0,0,1,0-1h8A.5.5,0,0,1,16.5,16ZM9,12a.5.5,0,0,1,.5-.5h5a.5.5,0,0,1,0,1h-5A.5.5,0,0,1,9,12Zm1.5-4a.5.5,0,0,1,.5-.5h2a.5.5,0,0,1,0,1H11A.5.5,0,0,1,10.5,8Z"/></g></svg>