<svg id="magicoon-Light" xmlns="http://www.w3.org/2000/svg" viewBox="0 0 24 24"><defs><style>.cls-1{fill:#41416e;}</style></defs><title>star</title><g id="star-Light"><path id="star-Light-2" data-name="star-Light" class="cls-1" d="M21.411,10.25A1.844,1.844,0,0,0,19.9,8.986l-4.309-.617L13.668,4.524h0a1.871,1.871,0,0,0-3.336,0L8.406,8.369,4.1,8.986A1.844,1.844,0,0,0,2.589,10.25a1.821,1.821,0,0,0,.477,1.881l3.114,2.99-.735,4.221a1.827,1.827,0,0,0,.726,1.793,1.868,1.868,0,0,0,1.973.151l3.856-2,3.856,2a1.866,1.866,0,0,0,1.973-.151,1.827,1.827,0,0,0,.726-1.793l-.735-4.221,3.114-2.991A1.819,1.819,0,0,0,21.411,10.25Zm-1.17,1.159-3.3,3.175a.5.5,0,0,0-.147.447l.78,4.483a.817.817,0,0,1-.332.814.861.861,0,0,1-.921.071L12.23,18.282a.5.5,0,0,0-.46,0L7.684,20.4a.859.859,0,0,1-.921-.071.817.817,0,0,1-.332-.814l.78-4.483a.5.5,0,0,0-.147-.447l-3.3-3.175a.814.814,0,0,1-.218-.853.84.84,0,0,1,.7-.58l4.569-.654a.5.5,0,0,0,.376-.271l2.043-4.08a.9.9,0,0,1,1.548,0h0l2.043,4.079a.5.5,0,0,0,.376.271l4.569.654a.84.84,0,0,1,.7.58A.814.814,0,0,1,20.241,11.409Z"/></g></svg>