<svg id="magicoon-Light" xmlns="http://www.w3.org/2000/svg" viewBox="0 0 24 24"><defs><style>.cls-1{fill:#41416e;}</style></defs><title>stopwatch</title><g id="stopwatch-Light"><path id="stopwatch-Light-2" data-name="stopwatch-Light" class="cls-1" d="M17.734,7.933a.493.493,0,0,0,.12-.08l1.5-1.5a.5.5,0,1,0-.708-.707l-1.5,1.5a.528.528,0,0,0-.1.153A7.955,7.955,0,0,0,12.5,5.525V3.5H14a.5.5,0,0,0,0-1H10a.5.5,0,0,0,0,1h1.5V5.525a8,8,0,1,0,6.234,2.408ZM12,20.5a7,7,0,1,1,7-7A7.008,7.008,0,0,1,12,20.5Zm2.391-4.813a.5.5,0,0,1-.782.625l-2-2.5A.5.5,0,0,1,11.5,13.5V10a.5.5,0,0,1,1,0v3.324Z"/></g></svg>