<svg id="magicoon-Light" xmlns="http://www.w3.org/2000/svg" viewBox="0 0 24 24"><defs><style>.cls-1{fill:#41416e;}</style></defs><title>store</title><g id="store-Light"><path id="store-Light-2" data-name="store-Light" class="cls-1" d="M21.5,9a.5.5,0,0,0-.026-.158L20.386,5.576A4.494,4.494,0,0,0,16.117,2.5H7.883A4.494,4.494,0,0,0,3.614,5.576L2.526,8.842A.5.5,0,0,0,2.5,9a3.494,3.494,0,0,0,1,2.446l0,.012V18A3.5,3.5,0,0,0,7,21.5h3.527V18a1.5,1.5,0,0,1,3,0v3.5H17A3.5,3.5,0,0,0,20.5,18V11.458l0-.012A3.494,3.494,0,0,0,21.5,9ZM4.562,5.893A3.5,3.5,0,0,1,7.883,3.5h8.234a3.494,3.494,0,0,1,3.32,2.393L20.5,9.077A2.5,2.5,0,0,1,18.01,11.5a2.74,2.74,0,0,1-2.538-1.666A.5.5,0,0,0,15,9.5h0a.5.5,0,0,0-.471.338,2.752,2.752,0,0,1-5.054,0A.5.5,0,0,0,9,9.5a.589.589,0,0,0-.474.334A2.74,2.74,0,0,1,5.99,11.5,2.5,2.5,0,0,1,3.5,9.077ZM17,20.5H14.527V18a2.5,2.5,0,0,0-5,0v2.5H7A2.5,2.5,0,0,1,4.5,18V12.151a3.44,3.44,0,0,0,1.49.349A3.853,3.853,0,0,0,9,11.034a3.809,3.809,0,0,0,6.006,0A3.854,3.854,0,0,0,18.01,12.5a3.44,3.44,0,0,0,1.49-.349V18A2.5,2.5,0,0,1,17,20.5Z"/></g></svg>