<svg id="magicoon-Light" xmlns="http://www.w3.org/2000/svg" viewBox="0 0 24 24"><defs><style>.cls-1{fill:#41416e;}</style></defs><title>tablet</title><g id="tablet-Light"><path id="tablet-Light-2" data-name="tablet-Light" class="cls-1" d="M13.5,18a.5.5,0,0,1-.5.5H11a.5.5,0,0,1,0-1h2A.5.5,0,0,1,13.5,18Zm6-11V17A4.505,4.505,0,0,1,15,21.5H9A4.505,4.505,0,0,1,4.5,17V7A4.5,4.5,0,0,1,9,2.5h6A4.5,4.5,0,0,1,19.5,7Zm-1,0A3.5,3.5,0,0,0,15,3.5H9A3.5,3.5,0,0,0,5.5,7V17A3.5,3.5,0,0,0,9,20.5h6A3.5,3.5,0,0,0,18.5,17Z"/></g></svg>