<svg id="magicoon-Light" xmlns="http://www.w3.org/2000/svg" viewBox="0 0 24 24"><defs><style>.cls-1{fill:#41416e;}</style></defs><title>tag</title><g id="tag-Light"><path id="tag-Light-2" data-name="tag-Light" class="cls-1" d="M20.183,10.353,13.649,3.819A4.47,4.47,0,0,0,10.467,2.5H6A3.5,3.5,0,0,0,2.5,6v4.466a4.47,4.47,0,0,0,1.318,3.182l6.534,6.534a4.5,4.5,0,0,0,6.364,0l3.466-3.466A4.5,4.5,0,0,0,20.183,10.353Zm-.707,5.657L16.01,19.476a3.5,3.5,0,0,1-4.95,0L4.526,12.942A3.477,3.477,0,0,1,3.5,10.467V6A2.5,2.5,0,0,1,6,3.5h4.466a3.477,3.477,0,0,1,2.475,1.025l6.534,6.534A3.5,3.5,0,0,1,19.476,16.01ZM8.5,7.5a1,1,0,1,1-1-1A1,1,0,0,1,8.5,7.5Z"/></g></svg>