<svg id="magicoon-Light" xmlns="http://www.w3.org/2000/svg" viewBox="0 0 24 24"><defs><style>.cls-1{fill:#41416e;}</style></defs><title>thumbtack</title><g id="thumbtack-Light"><path id="thumbtack-Light-2" data-name="thumbtack-Light" class="cls-1" d="M17.233,9.526,16.5,8.793v-2.6A5.488,5.488,0,0,0,17.5,3a.5.5,0,0,0-.5-.5H7a.5.5,0,0,0-.5.5,5.487,5.487,0,0,0,1,3.192v2.6l-.733.733A7.69,7.69,0,0,0,4.5,15a.5.5,0,0,0,.5.5h6.5V21a.5.5,0,0,0,1,0V15.5H19a.5.5,0,0,0,.5-.5A7.688,7.688,0,0,0,17.233,9.526ZM5.519,14.5a6.683,6.683,0,0,1,1.955-4.266l.88-.88A.5.5,0,0,0,8.5,9V6a.5.5,0,0,0-.146-.353A3.941,3.941,0,0,1,7.53,3.5h8.94a3.948,3.948,0,0,1-.824,2.146A.5.5,0,0,0,15.5,6V9a.5.5,0,0,0,.146.353l.88.88A6.683,6.683,0,0,1,18.481,14.5Z"/></g></svg>