<svg id="magicoon-Light" xmlns="http://www.w3.org/2000/svg" viewBox="0 0 24 24"><defs><style>.cls-1{fill:#41416e;}</style></defs><title>times-square</title><g id="times-square-Light"><path id="times-square-Light-2" data-name="times-square-Light" class="cls-1" d="M15.354,9.353,12.707,12l2.647,2.646a.5.5,0,1,1-.708.707L12,12.707,9.354,15.353a.5.5,0,1,1-.708-.707L11.293,12,8.646,9.353a.5.5,0,0,1,.708-.707L12,11.293l2.646-2.647a.5.5,0,0,1,.708.707ZM21.5,9v6A6.508,6.508,0,0,1,15,21.5H9A6.508,6.508,0,0,1,2.5,15V9A6.508,6.508,0,0,1,9,2.5h6A6.508,6.508,0,0,1,21.5,9Zm-1,0A5.506,5.506,0,0,0,15,3.5H9A5.506,5.506,0,0,0,3.5,9v6A5.506,5.506,0,0,0,9,20.5h6A5.506,5.506,0,0,0,20.5,15Z"/><path id="times-square-Light-3" data-name="times-square-Light" class="cls-1" d="M15.354,9.354,12.707,12l2.647,2.646a.5.5,0,0,1-.708.708L12,12.707,9.354,15.354a.5.5,0,0,1-.708-.708L11.293,12,8.646,9.354a.5.5,0,0,1,.708-.708L12,11.293l2.646-2.647a.5.5,0,0,1,.708.708ZM21.5,9v6A6.508,6.508,0,0,1,15,21.5H9A6.508,6.508,0,0,1,2.5,15V9A6.508,6.508,0,0,1,9,2.5h6A6.508,6.508,0,0,1,21.5,9Zm-1,0A5.506,5.506,0,0,0,15,3.5H9A5.506,5.506,0,0,0,3.5,9v6A5.506,5.506,0,0,0,9,20.5h6A5.506,5.506,0,0,0,20.5,15Z"/></g></svg>