<svg id="magicoon-Light" xmlns="http://www.w3.org/2000/svg" viewBox="0 0 24 24"><defs><style>.cls-1{fill:#41416e;}</style></defs><title>trash</title><g id="trash-Light"><path id="trash-Light-2" data-name="trash-Light" class="cls-1" d="M21,5.5H17.441a1.5,1.5,0,0,1-1.422-1.026L15.7,3.525A1.5,1.5,0,0,0,14.279,2.5H9.721A1.5,1.5,0,0,0,8.3,3.525l-.315.949A1.5,1.5,0,0,1,6.559,5.5H3a.5.5,0,0,0,0,1H4.532l.782,11.733A3.51,3.51,0,0,0,8.807,21.5h6.386a3.51,3.51,0,0,0,3.493-3.267L19.468,6.5H21a.5.5,0,0,0,0-1ZM9.246,3.842A.5.5,0,0,1,9.721,3.5h4.558a.5.5,0,0,1,.474.342l.317.949a2.511,2.511,0,0,0,.372.709H8.558a2.514,2.514,0,0,0,.373-.709Zm8.441,14.325A2.5,2.5,0,0,1,15.193,20.5H8.807a2.506,2.506,0,0,1-2.495-2.333L5.535,6.5H6.559a2.541,2.541,0,0,0,.316-.025A.478.478,0,0,0,7,6.5H17a.478.478,0,0,0,.125-.025,2.541,2.541,0,0,0,.316.025h1.024ZM14.5,11v5a.5.5,0,0,1-1,0V11a.5.5,0,0,1,1,0Zm-4,0v5a.5.5,0,0,1-1,0V11a.5.5,0,0,1,1,0Z"/></g></svg>