<svg id="magicoon-Light" xmlns="http://www.w3.org/2000/svg" viewBox="0 0 24 24"><defs><style>.cls-1{fill:#41416e;}</style></defs><title>upload</title><g id="upload-Light"><path id="upload-Light-2" data-name="upload-Light" class="cls-1" d="M8.646,7.354a.5.5,0,0,1,0-.708l3-3a.5.5,0,0,1,.708,0l3,3a.5.5,0,0,1-.708.708L12.5,5.207V11a.5.5,0,0,1-1,0V5.207L9.354,7.354A.5.5,0,0,1,8.646,7.354ZM17,10.5a.5.5,0,0,0,0,1A3.5,3.5,0,0,1,20.5,15v1A3.5,3.5,0,0,1,17,19.5H7A3.5,3.5,0,0,1,3.5,16V15A3.5,3.5,0,0,1,7,11.5a.5.5,0,0,0,0-1A4.505,4.505,0,0,0,2.5,15v1A4.505,4.505,0,0,0,7,20.5H17A4.505,4.505,0,0,0,21.5,16V15A4.505,4.505,0,0,0,17,10.5ZM17,16a1,1,0,1,0-1-1A1,1,0,0,0,17,16Z"/></g></svg>