<svg id="magicoon-Light" xmlns="http://www.w3.org/2000/svg" viewBox="0 0 24 24"><defs><style>.cls-1{fill:#41416e;}</style></defs><title>user</title><g id="user-Light"><path id="user-Light-2" data-name="user-Light" class="cls-1" d="M12,12.5a5,5,0,1,0-5-5A5.006,5.006,0,0,0,12,12.5Zm0-9a4,4,0,1,1-4,4A4,4,0,0,1,12,3.5Zm7.5,14.467v1.011a3.526,3.526,0,0,1-.9,2.355.5.5,0,0,1-.746-.667,2.521,2.521,0,0,0,.643-1.688V17.967a3.509,3.509,0,0,0-2.632-3.428,1.273,1.273,0,0,0-.931.121,6.057,6.057,0,0,1-5.87,0,1.265,1.265,0,0,0-.934-.124A3.51,3.51,0,0,0,5.5,17.967v1.011a2.521,2.521,0,0,0,.643,1.688.5.5,0,0,1-.746.667,3.526,3.526,0,0,1-.9-2.355V17.967a4.51,4.51,0,0,1,3.388-4.4,2.281,2.281,0,0,1,1.67.222,5.05,5.05,0,0,0,4.889,0,2.271,2.271,0,0,1,1.666-.22A4.509,4.509,0,0,1,19.5,17.967Z"/></g></svg>