<svg id="magicoon-Light" xmlns="http://www.w3.org/2000/svg" viewBox="0 0 24 24"><defs><style>.cls-1{fill:#41416e;}</style></defs><title>users</title><g id="users-Light"><path id="users-Light-2" data-name="users-Light" class="cls-1" d="M16.5,17.638v.507a3.259,3.259,0,0,1-.844,2.191.5.5,0,0,1-.741-.672,2.259,2.259,0,0,0,.585-1.519v-.507a3.186,3.186,0,0,0-2.416-3.1,1.151,1.151,0,0,0-.84.108,5.726,5.726,0,0,1-5.483,0,1.149,1.149,0,0,0-.845-.111,3.186,3.186,0,0,0-2.416,3.1v.507a2.26,2.26,0,0,0,.585,1.519.5.5,0,0,1-.741.671,3.258,3.258,0,0,1-.844-2.19v-.507a4.186,4.186,0,0,1,3.174-4.074,2.172,2.172,0,0,1,1.574.208,4.716,4.716,0,0,0,4.509,0,2.154,2.154,0,0,1,1.569-.2A4.184,4.184,0,0,1,16.5,17.638Zm1.826-4.074a.5.5,0,0,0-.242.971,3.186,3.186,0,0,1,2.416,3.1v.507a2.259,2.259,0,0,1-.585,1.519.5.5,0,0,0,.741.672,3.259,3.259,0,0,0,.844-2.191v-.507A4.186,4.186,0,0,0,18.326,13.564ZM5,8a4.5,4.5,0,1,1,4.5,4.5A4.5,4.5,0,0,1,5,8ZM6,8A3.5,3.5,0,1,0,9.5,4.5,3.5,3.5,0,0,0,6,8Zm9.062-4.466a.5.5,0,0,0-.124.993,3.5,3.5,0,0,1,1.749,6.2.5.5,0,0,0,.626.78,4.5,4.5,0,0,0-2.251-7.978Z"/></g></svg>