<svg id="magicoon-Light" xmlns="http://www.w3.org/2000/svg" viewBox="0 0 24 24"><defs><style>.cls-1{fill:#41416e;}</style></defs><title>users-three</title><g id="users-three-Light"><path id="users-three-Light-2" data-name="users-three-Light" class="cls-1" d="M12,13.5A4.5,4.5,0,1,0,7.5,9,4.505,4.505,0,0,0,12,13.5Zm0-8A3.5,3.5,0,1,1,8.5,9,3.5,3.5,0,0,1,12,5.5Zm6.5,12.9v.866a3.1,3.1,0,0,1-.787,2.067.5.5,0,0,1-.373.167.494.494,0,0,1-.333-.128.5.5,0,0,1-.04-.706,2.094,2.094,0,0,0,.533-1.4V18.4a2.937,2.937,0,0,0-2.2-2.869,1,1,0,0,0-.744.1,5.27,5.27,0,0,1-5.1,0,1.006,1.006,0,0,0-.749-.1A2.937,2.937,0,0,0,6.5,18.4v.866a2.094,2.094,0,0,0,.533,1.4.5.5,0,0,1-.746.667A3.1,3.1,0,0,1,5.5,19.266V18.4a3.938,3.938,0,0,1,2.958-3.839,2.02,2.02,0,0,1,1.484.2,4.259,4.259,0,0,0,4.12,0,2.027,2.027,0,0,1,1.48-.2A3.938,3.938,0,0,1,18.5,18.4ZM17.528,5a.5.5,0,0,1,.639-.3,3.5,3.5,0,0,1,1.166,5.909.494.494,0,0,1-.333.128.5.5,0,0,1-.333-.873,2.5,2.5,0,0,0-.834-4.221A.5.5,0,0,1,17.528,5ZM21.5,15.833v.722a.5.5,0,0,1-1,0v-.722a2.365,2.365,0,0,0-1.772-2.31.5.5,0,1,1,.244-.97A3.364,3.364,0,0,1,21.5,15.833ZM4.667,11.052A3.5,3.5,0,0,1,5.833,5.143a.5.5,0,0,1,.334.944,2.5,2.5,0,0,0-.834,4.22A.5.5,0,0,1,5,11.18.494.494,0,0,1,4.667,11.052Zm.605,2.916A2.365,2.365,0,0,0,3.5,16.278V17a.5.5,0,0,1-1,0v-.722A3.363,3.363,0,0,1,5.028,13a.5.5,0,1,1,.244.97Z"/></g></svg>