<svg id="magicoon-Light" xmlns="http://www.w3.org/2000/svg" viewBox="0 0 24 24"><defs><style>.cls-1{fill:#41416e;}</style></defs><title>video-slash</title><g id="video-slash-Light"><path id="video-slash-Light-2" data-name="video-slash-Light" class="cls-1" d="M3.721,16.78a.5.5,0,0,1-.412-.216A4.489,4.489,0,0,1,2.5,14V10A4.5,4.5,0,0,1,7,5.5h4a4.487,4.487,0,0,1,2.564.809A.5.5,0,1,1,13,7.131,3.491,3.491,0,0,0,11,6.5H7A3.5,3.5,0,0,0,3.5,10v4A3.491,3.491,0,0,0,4.131,16a.5.5,0,0,1-.41.785ZM21.5,9.238v5.523a1.7,1.7,0,0,1-2.641,1.416L15.5,13.945V14A4.505,4.505,0,0,1,11,18.5H7a4.7,4.7,0,0,1-.727-.067l-1.919,1.92a.5.5,0,0,1-.708-.707l16-16a.5.5,0,0,1,.708.707l-4.92,4.92A4.812,4.812,0,0,1,15.5,10v.055l3.359-2.233A1.7,1.7,0,0,1,21.5,9.238ZM14.5,14V10.207L7.207,17.5H11A3.5,3.5,0,0,0,14.5,14Zm6-4.762a.7.7,0,0,0-1.088-.583l-3.912,2.6v1.488l3.913,2.6a.7.7,0,0,0,1.087-.583Z"/></g></svg>