<svg id="magicoon-Light" xmlns="http://www.w3.org/2000/svg" viewBox="0 0 24 24"><defs><style>.cls-1{fill:#41416e;}</style></defs><title>video</title><g id="video-Light"><path id="video-Light-2" data-name="video-Light" class="cls-1" d="M20.6,7.74a1.7,1.7,0,0,0-1.745.082L15.5,10.055V10A4.5,4.5,0,0,0,11,5.5H7A4.5,4.5,0,0,0,2.5,10v4A4.505,4.505,0,0,0,7,18.5h4A4.505,4.505,0,0,0,15.5,14v-.055l3.359,2.232A1.7,1.7,0,0,0,21.5,14.761V9.238A1.7,1.7,0,0,0,20.6,7.74ZM14.5,14A3.5,3.5,0,0,1,11,17.5H7A3.5,3.5,0,0,1,3.5,14V10A3.5,3.5,0,0,1,7,6.5h4A3.5,3.5,0,0,1,14.5,10Zm6,.761a.7.7,0,0,1-1.087.583l-3.913-2.6V11.256l3.912-2.6a.7.7,0,0,1,1.088.583Z"/></g></svg>