<svg id="magicoon-Light" xmlns="http://www.w3.org/2000/svg" viewBox="0 0 24 24"><defs><style>.cls-1{fill:#41416e;}</style></defs><title>volume-up</title><g id="volume-up-Light"><path id="volume-up-Light-2" data-name="volume-up-Light" class="cls-1" d="M11.751,3.778a2.964,2.964,0,0,0-3.2.449l-2.6,2.225a.492.492,0,0,1-.323.121H4.893A2.4,2.4,0,0,0,2.5,8.974v6.051a2.4,2.4,0,0,0,2.393,2.4H5.63a.5.5,0,0,1,.325.12l2.594,2.225a2.971,2.971,0,0,0,1.942.728,3.015,3.015,0,0,0,1.26-.279A2.976,2.976,0,0,0,13.5,17.489V6.51A2.976,2.976,0,0,0,11.751,3.778ZM12.5,17.489a1.986,1.986,0,0,1-1.167,1.824,1.955,1.955,0,0,1-2.134-.3L6.606,16.788a1.491,1.491,0,0,0-.974-.361H4.894a1.4,1.4,0,0,1-1.394-1.4V8.974a1.4,1.4,0,0,1,1.394-1.4h.738a1.491,1.491,0,0,0,.973-.362L9.2,4.986A1.966,1.966,0,0,1,10.487,4.5a2.021,2.021,0,0,1,.846.19A1.986,1.986,0,0,1,12.5,6.51ZM16.4,8.7a5.5,5.5,0,0,1,0,6.6.5.5,0,0,1-.4.2.5.5,0,0,1-.4-.8,4.5,4.5,0,0,0,0-5.4.5.5,0,1,1,.8-.6ZM21.5,12a9.455,9.455,0,0,1-2.428,6.334.5.5,0,0,1-.744-.669,8.475,8.475,0,0,0,0-11.331.5.5,0,0,1,.744-.669A9.458,9.458,0,0,1,21.5,12Z"/></g></svg>