<svg id="magicoon-Bold" xmlns="http://www.w3.org/2000/svg" viewBox="0 0 24 24"><defs><style>.cls-1{fill:#41416e;}</style></defs><title>bell</title><g id="bell-Bold"><path id="bell-Bold-2" data-name="bell-Bold" class="cls-1" d="M20.671,15.518l-1.107-1.845A4.005,4.005,0,0,1,19,11.617V8.99a7,7,0,0,0-13.99,0v2.627a4,4,0,0,1-.569,2.055L3.33,15.518A2.3,2.3,0,0,0,5.3,19H9a3,3,0,0,0,6,0h3.7a2.3,2.3,0,0,0,1.974-3.482ZM12,20a1,1,0,0,1-1-1h2A1,1,0,0,1,12,20Zm6.959-3.152A.292.292,0,0,1,18.7,17H5.3a.3.3,0,0,1-.258-.453L6.151,14.7a6,6,0,0,0,.854-3.083V8.99a5,5,0,0,1,9.99,0v2.627a6.008,6.008,0,0,0,.854,3.084l1.107,1.846A.291.291,0,0,1,18.959,16.848Z"/></g></svg>