<svg id="magicoon-Bold" xmlns="http://www.w3.org/2000/svg" viewBox="0 0 24 24"><defs><style>.cls-1{fill:#41416e;}</style></defs><title>bell-slash</title><g id="bell-slash-Bold"><path id="bell-slash-Bold-2" data-name="bell-slash-Bold" class="cls-1" d="M19.567,13.675A3.98,3.98,0,0,1,19,11.62V8.99a6.9,6.9,0,0,0-.362-2.214l2.069-2.069a1,1,0,1,0-1.414-1.414l-14,14,0,0-2,2a1,1,0,1,0,1.414,1.414L6.414,19H9a3,3,0,0,0,6,0h3.7a2.3,2.3,0,0,0,1.968-3.483ZM12,20a1,1,0,0,1-1-1h2A1,1,0,0,1,12,20Zm6.957-3.148A.283.283,0,0,1,18.7,17H8.414l8.531-8.531A5.026,5.026,0,0,1,17,8.99v2.63a5.979,5.979,0,0,0,.852,3.084l1.1,1.839A.3.3,0,0,1,18.957,16.852Zm-15.3-1.884.77-1.29A3.979,3.979,0,0,0,5,11.62V8.99a7.012,7.012,0,0,1,11.337-5.5A1,1,0,0,1,15.1,5.067,5.012,5.012,0,0,0,7,8.99v2.63a5.975,5.975,0,0,1-.854,3.087l-.767,1.286a1,1,0,0,1-1.718-1.025Z"/></g></svg>