<svg id="magicoon-Bold" xmlns="http://www.w3.org/2000/svg" viewBox="0 0 24 24"><defs><style>.cls-1{fill:#41416e;}</style></defs><title>calendar</title><g id="calendar-Bold"><path id="calendar-Bold-2" data-name="calendar-Bold" class="cls-1" d="M17,3a1,1,0,0,0-2,0H9A1,1,0,0,0,7,3,5.006,5.006,0,0,0,2,8v9a5.006,5.006,0,0,0,5,5H17a5.006,5.006,0,0,0,5-5V8A5.006,5.006,0,0,0,17,3ZM7,5V6A1,1,0,0,0,9,6V5h6V6a1,1,0,0,0,2,0V5a3,3,0,0,1,3,3H4A3,3,0,0,1,7,5ZM17,20H7a3,3,0,0,1-3-3V10H20v7A3,3,0,0,1,17,20Zm0-7a1,1,0,1,1-1-1A1,1,0,0,1,17,13Zm-4,0a1,1,0,1,1-1-1A1,1,0,0,1,13,13ZM9,13a1,1,0,1,1-1-1A1,1,0,0,1,9,13Zm8,4a1,1,0,1,1-1-1A1,1,0,0,1,17,17Zm-4,0a1,1,0,1,1-1-1A1,1,0,0,1,13,17ZM9,17a1,1,0,1,1-1-1A1,1,0,0,1,9,17Z"/></g></svg>