<svg id="magicoon-Bold" xmlns="http://www.w3.org/2000/svg" viewBox="0 0 24 24"><defs><style>.cls-1{fill:#41416e;}</style></defs><title>chart-pie</title><g id="chart-pie-Bold"><path id="chart-pie-Bold-2" data-name="chart-pie-Bold" class="cls-1" d="M21.95,9.931A10.045,10.045,0,0,0,14.069,2.05a2.507,2.507,0,0,0-3,2.457V9.931a3,3,0,0,0,3,3h5.424a2.507,2.507,0,0,0,2.457-3Zm-2.065.813a.5.5,0,0,1-.392.187H14.069a1,1,0,0,1-1-1V4.507a.509.509,0,0,1,.5-.507.476.476,0,0,1,.1.011,8.046,8.046,0,0,1,6.314,6.314A.5.5,0,0,1,19.885,10.744Zm.692,4.547A9.5,9.5,0,0,1,2,12.5,9.431,9.431,0,0,1,8.709,3.423a1,1,0,0,1,.582,1.914,7.5,7.5,0,1,0,9.372,9.372,1,1,0,0,1,1.914.582Z"/></g></svg>