<svg id="magicoon-Bold" xmlns="http://www.w3.org/2000/svg" viewBox="0 0 24 24"><defs><style>.cls-1{fill:#41416e;}</style></defs><title>chevron-circle-left</title><g id="chevron-circle-left-Bold"><path id="chevron-circle-left-Bold-2" data-name="chevron-circle-left-Bold" class="cls-1" d="M13.707,9.707,11.414,12l2.293,2.293a1,1,0,1,1-1.414,1.414l-3-3a1,1,0,0,1,0-1.414l3-3a1,1,0,0,1,1.414,1.414ZM22,12A10,10,0,1,1,12,2,10.011,10.011,0,0,1,22,12Zm-2,0a8,8,0,1,0-8,8A8.009,8.009,0,0,0,20,12Z"/></g></svg>