<svg id="magicoon-Bold" xmlns="http://www.w3.org/2000/svg" viewBox="0 0 24 24"><defs><style>.cls-1{fill:#41416e;}</style></defs><title>chevron-circle-right</title><g id="chevron-circle-right-Bold"><path id="chevron-circle-right-Bold-2" data-name="chevron-circle-right-Bold" class="cls-1" d="M12,2A10,10,0,1,0,22,12,10.011,10.011,0,0,0,12,2Zm0,18a8,8,0,1,1,8-8A8.009,8.009,0,0,1,12,20Zm2.707-8.707a1,1,0,0,1,0,1.414l-3,3a1,1,0,0,1-1.414-1.414L12.586,12,10.293,9.707a1,1,0,0,1,1.414-1.414Z"/></g></svg>