<svg id="magicoon-Bold" xmlns="http://www.w3.org/2000/svg" viewBox="0 0 24 24"><defs><style>.cls-1{fill:#41416e;}</style></defs><title>comment</title><g id="comment-Bold"><path id="comment-Bold-2" data-name="comment-Bold" class="cls-1" d="M17,3H7A5.006,5.006,0,0,0,2,8V21a1,1,0,0,0,.617.924A.987.987,0,0,0,3,22a1,1,0,0,0,.707-.293l2.414-2.414A1,1,0,0,1,6.829,19H17a5.006,5.006,0,0,0,5-5V8A5.006,5.006,0,0,0,17,3Zm3,11a3,3,0,0,1-3,3H6.829a2.978,2.978,0,0,0-2.122.879L4,18.586V8A3,3,0,0,1,7,5H17a3,3,0,0,1,3,3Z"/></g></svg>