<svg id="magicoon-Bold" xmlns="http://www.w3.org/2000/svg" viewBox="0 0 24 24"><defs><style>.cls-1{fill:#41416e;}</style></defs><title>comments</title><g id="comments-Bold"><path id="comments-Bold-2" data-name="comments-Bold" class="cls-1" d="M18,7V6a4,4,0,0,0-4-4H6A4,4,0,0,0,2,6V16a1,1,0,0,0,1.714.7L5.38,15H6v1a4,4,0,0,0,4,4h8.62l1.666,1.7A1,1,0,0,0,22,21V11A4,4,0,0,0,18,7ZM4.96,13a1,1,0,0,0-.714.3L4,13.551V6A2,2,0,0,1,6,4h8a2,2,0,0,1,2,2v5a2,2,0,0,1-2,2ZM20,18.551l-.246-.251a1,1,0,0,0-.714-.3H10a2,2,0,0,1-2-2V15h6a4,4,0,0,0,4-4V9a2,2,0,0,1,2,2Z"/></g></svg>