<svg id="magicoon-Bold" xmlns="http://www.w3.org/2000/svg" viewBox="0 0 24 24"><defs><style>.cls-1{fill:#41416e;}</style></defs><title>compass</title><g id="compass-Bold"><path id="compass-Bold-2" data-name="compass-Bold" class="cls-1" d="M12,2A10,10,0,1,0,22,12,10.011,10.011,0,0,0,12,2Zm0,18a8,8,0,1,1,8-8A8.009,8.009,0,0,1,12,20ZM15.141,6.435,11.085,7.448a4.991,4.991,0,0,0-3.637,3.638L6.434,15.141a1.993,1.993,0,0,0,2.425,2.424l4.056-1.013a4.991,4.991,0,0,0,3.637-3.638l1.014-4.055a2,2,0,0,0-2.425-2.424Zm.484,1.94-1.013,4.054a3,3,0,0,1-2.183,2.183L8.375,15.625l1.013-4.054a3,3,0,0,1,2.183-2.183l4.055-1.014ZM12,10.5A1.5,1.5,0,1,1,10.5,12,1.5,1.5,0,0,1,12,10.5Z"/></g></svg>