<svg id="magicoon-Bold" xmlns="http://www.w3.org/2000/svg" viewBox="0 0 24 24"><defs><style>.cls-1{fill:#41416e;}</style></defs><title>copy</title><g id="copy-Bold"><path id="copy-Bold-2" data-name="copy-Bold" class="cls-1" d="M21.414,6,18,2.586A1.986,1.986,0,0,0,16.586,2H11A4,4,0,0,0,7,6H6a4,4,0,0,0-4,4v8a4,4,0,0,0,4,4h7a4,4,0,0,0,4-4h1a4,4,0,0,0,4-4V7.414A2.011,2.011,0,0,0,21.414,6ZM17,4.414,19.586,7H18.265A1.266,1.266,0,0,1,17,5.735ZM13,20H6a2,2,0,0,1-2-2V10A2,2,0,0,1,6,8H7v6a4,4,0,0,0,4,4h4A2,2,0,0,1,13,20Zm5-4H11a2,2,0,0,1-2-2V6a2,2,0,0,1,2-2h4V5.735A3.269,3.269,0,0,0,18.265,9H20v5A2,2,0,0,1,18,16Z"/></g></svg>