<svg id="magicoon-Bold" xmlns="http://www.w3.org/2000/svg" viewBox="0 0 24 24"><defs><style>.cls-1{fill:#41416e;}</style></defs><title>coupon</title><g id="coupon-Bold"><path id="coupon-Bold-2" data-name="coupon-Bold" class="cls-1" d="M21,11h1V9a5.006,5.006,0,0,0-5-5H7A5.006,5.006,0,0,0,2,9v2H3a1,1,0,0,1,0,2H2v2a5.006,5.006,0,0,0,5,5H17a5.006,5.006,0,0,0,5-5V13H21a1,1,0,0,1,0-2ZM20,9.171a3,3,0,0,0,0,5.658V15a3,3,0,0,1-3,3H16V16a1,1,0,0,0-2,0v2H7a3,3,0,0,1-3-3v-.171A3,3,0,0,0,4,9.171V9A3,3,0,0,1,7,6h7V8a1,1,0,0,0,2,0V6h1a3,3,0,0,1,3,3ZM16,11v2a1,1,0,0,1-2,0V11a1,1,0,0,1,2,0Z"/></g></svg>