<svg id="magicoon-Bold" xmlns="http://www.w3.org/2000/svg" viewBox="0 0 24 24"><defs><style>.cls-1{fill:#41416e;}</style></defs><title>credit-card</title><g id="credit-card-Bold"><path id="credit-card-Bold-2" data-name="credit-card-Bold" class="cls-1" d="M17,4H7A5.006,5.006,0,0,0,2,9v6a5.006,5.006,0,0,0,5,5H17a5.006,5.006,0,0,0,5-5V9A5.006,5.006,0,0,0,17,4Zm3,11a3,3,0,0,1-3,3H7a3,3,0,0,1-3-3V11H20ZM4,9A3,3,0,0,1,7,6H17a3,3,0,0,1,3,3Zm2,6a1,1,0,0,1,1-1h3a1,1,0,0,1,0,2H7A1,1,0,0,1,6,15Z"/></g></svg>