<svg id="magicoon-Bold" xmlns="http://www.w3.org/2000/svg" viewBox="0 0 24 24"><defs><style>.cls-1{fill:#41416e;}</style></defs><title>discount</title><g id="discount-Bold"><path id="discount-Bold-2" data-name="discount-Bold" class="cls-1" d="M20.972,9.519l-.578-.58a1,1,0,0,1-.3-.712V7.412a3.515,3.515,0,0,0-3.51-3.51h-.815a.994.994,0,0,1-.712-.3l-.579-.578a3.513,3.513,0,0,0-4.964,0l-.579.578a.994.994,0,0,1-.712.3H7.412A3.515,3.515,0,0,0,3.9,7.412v.815a1,1,0,0,1-.3.712l-.577.58a3.507,3.507,0,0,0,0,4.962l.578.58a1,1,0,0,1,.3.712v.815a3.515,3.515,0,0,0,3.51,3.51h.815a.994.994,0,0,1,.712.3l.579.578a3.515,3.515,0,0,0,4.964,0l.579-.578a.994.994,0,0,1,.712-.3h.815a3.515,3.515,0,0,0,3.51-3.51v-.815a1,1,0,0,1,.3-.712l.578-.58a3.508,3.508,0,0,0,0-4.962Zm-1.414,3.548h0l-.578.579a2.993,2.993,0,0,0-.881,2.127v.815a1.512,1.512,0,0,1-1.51,1.51h-.815a2.989,2.989,0,0,0-2.127.881l-.578.579a1.514,1.514,0,0,1-2.136,0l-.578-.579A2.989,2.989,0,0,0,8.227,18.1H7.412a1.513,1.513,0,0,1-1.51-1.51v-.815a2.993,2.993,0,0,0-.881-2.127l-.579-.579a1.508,1.508,0,0,1,0-2.134l.578-.579A2.993,2.993,0,0,0,5.9,8.227V7.412A1.513,1.513,0,0,1,7.412,5.9h.815a2.989,2.989,0,0,0,2.127-.881l.578-.579a1.514,1.514,0,0,1,2.136,0l.578.579a2.989,2.989,0,0,0,2.127.881h.815a1.512,1.512,0,0,1,1.51,1.51v.815a2.993,2.993,0,0,0,.881,2.127l.579.579a1.509,1.509,0,0,1,0,2.134ZM15.707,8.293a1,1,0,0,1,0,1.414l-6,6a1,1,0,0,1-1.414-1.414l6-6A1,1,0,0,1,15.707,8.293ZM16,14.5A1.5,1.5,0,1,1,14.5,13,1.5,1.5,0,0,1,16,14.5Zm-8-5A1.5,1.5,0,1,1,9.5,11,1.5,1.5,0,0,1,8,9.5Z"/></g></svg>