<svg id="magicoon-Bold" xmlns="http://www.w3.org/2000/svg" viewBox="0 0 24 24"><defs><style>.cls-1{fill:#41416e;}</style></defs><title>download</title><g id="download-Bold"><path id="download-Bold-2" data-name="download-Bold" class="cls-1" d="M8.293,8.707A1,1,0,1,1,9.707,7.293L11,8.586V4a1,1,0,0,1,2,0V8.586l1.293-1.293a1,1,0,1,1,1.414,1.414l-3,3a1,1,0,0,1-1.414,0ZM17,10a1,1,0,0,0,0,2,3,3,0,0,1,3,3v1a3,3,0,0,1-3,3H7a3,3,0,0,1-3-3V15a3,3,0,0,1,3-3,1,1,0,0,0,0-2,5.006,5.006,0,0,0-5,5v1a5.006,5.006,0,0,0,5,5H17a5.006,5.006,0,0,0,5-5V15A5.006,5.006,0,0,0,17,10Zm1,5a1,1,0,1,0-1,1A1,1,0,0,0,18,15Z"/></g></svg>