<svg id="magicoon-Bold" xmlns="http://www.w3.org/2000/svg" viewBox="0 0 24 24"><defs><style>.cls-1{fill:#41416e;}</style></defs><title>envelope</title><g id="envelope-Bold"><path id="envelope-Bold-2" data-name="envelope-Bold" class="cls-1" d="M17,4H7A5.006,5.006,0,0,0,2,9v6a5.006,5.006,0,0,0,5,5H17a5.006,5.006,0,0,0,5-5V9A5.006,5.006,0,0,0,17,4ZM7,6H17a2.994,2.994,0,0,1,2.68,1.678l-6.016,4.01a2.992,2.992,0,0,1-3.328,0L4.32,7.678A2.994,2.994,0,0,1,7,6ZM17,18H7a3,3,0,0,1-3-3V9.868l5.226,3.485a4.989,4.989,0,0,0,5.547,0L20,9.868V15A3,3,0,0,1,17,18Z"/></g></svg>