<svg id="magicoon-Bold" xmlns="http://www.w3.org/2000/svg" viewBox="0 0 24 24"><defs><style>.cls-1{fill:#41416e;}</style></defs><title>eye-slash</title><g id="eye-slash-Bold"><path id="eye-slash-Bold-2" data-name="eye-slash-Bold" class="cls-1" d="M21.445,9.985a14.772,14.772,0,0,0-2.718-3.3l1.978-1.978a1,1,0,0,0-1.414-1.414L8.828,13.756h0L3.291,19.293a1,1,0,1,0,1.414,1.414L6.872,18.54A9.659,9.659,0,0,0,12,20c5.069,0,8.092-3.748,9.446-5.986A3.922,3.922,0,0,0,21.445,9.985ZM14.5,12a2.493,2.493,0,0,1-3.411,2.325l3.235-3.236A2.474,2.474,0,0,1,14.5,12Zm5.233.982C18.6,14.856,16.088,18,12,18a7.669,7.669,0,0,1-3.659-.929L9.61,15.8A4.436,4.436,0,0,0,12,16.5,4.505,4.505,0,0,0,16.5,12a4.433,4.433,0,0,0-.7-2.387L17.31,8.1a12.6,12.6,0,0,1,2.419,2.912A1.937,1.937,0,0,1,19.731,12.982ZM3.938,15.945a15.131,15.131,0,0,1-1.382-1.928,3.922,3.922,0,0,1,0-4.03C3.908,7.748,6.931,4,12,4a9.947,9.947,0,0,1,2.9.432,1,1,0,0,1-.573,1.916A7.961,7.961,0,0,0,12,6C7.912,6,5.4,9.144,4.269,11.018a1.944,1.944,0,0,0,0,1.969,13,13,0,0,0,1.2,1.667,1,1,0,0,1-.119,1.409A.986.986,0,0,1,4.7,16.3,1,1,0,0,1,3.938,15.945ZM11.3,7.562A1,1,0,1,1,11.6,9.538,2.492,2.492,0,0,0,9.536,11.6a1,1,0,0,1-1.977-.3A4.453,4.453,0,0,1,11.3,7.562Z"/></g></svg>