<svg id="magicoon-Bold" xmlns="http://www.w3.org/2000/svg" viewBox="0 0 24 24"><defs><style>.cls-1{fill:#41416e;}</style></defs><title>eye</title><g id="eye-Bold"><path id="eye-Bold-2" data-name="eye-Bold" class="cls-1" d="M21.444,9.987C20.1,7.751,17.09,4,12,4S3.9,7.751,2.556,9.987a3.91,3.91,0,0,0,0,4.026C3.9,16.249,6.911,20,12,20s8.1-3.751,9.444-5.987A3.905,3.905,0,0,0,21.444,9.987Zm-1.715,3C18.6,14.857,16.105,18,12,18s-6.6-3.144-7.729-5.017a1.906,1.906,0,0,1,0-1.966C5.4,9.144,7.9,6,12,6s6.6,3.143,7.729,5.017A1.906,1.906,0,0,1,19.729,12.983ZM12,7.5A4.5,4.5,0,1,0,16.5,12,4.505,4.505,0,0,0,12,7.5Zm0,7A2.5,2.5,0,1,1,14.5,12,2.5,2.5,0,0,1,12,14.5Z"/></g></svg>