<svg id="magicoon-Bold" xmlns="http://www.w3.org/2000/svg" viewBox="0 0 24 24"><defs><style>.cls-1{fill:#41416e;}</style></defs><title>file</title><g id="file-Bold"><path id="file-Bold-2" data-name="file-Bold" class="cls-1" d="M19.414,7,15,2.586A1.986,1.986,0,0,0,13.586,2H9A5.006,5.006,0,0,0,4,7V17a5.006,5.006,0,0,0,5,5h6a5.006,5.006,0,0,0,5-5V8.414A2.011,2.011,0,0,0,19.414,7ZM15,5.414,16.586,7H16.5A1.5,1.5,0,0,1,15,5.5ZM15,20H9a3,3,0,0,1-3-3V7A3,3,0,0,1,9,4h4V5.5A3.5,3.5,0,0,0,16.5,9H18v8A3,3,0,0,1,15,20Z"/></g></svg>