<svg id="magicoon-Bold" xmlns="http://www.w3.org/2000/svg" viewBox="0 0 24 24"><defs><style>.cls-1{fill:#41416e;}</style></defs><title>film</title><g id="film-Bold"><path id="film-Bold-2" data-name="film-Bold" class="cls-1" d="M17,2H7A5.006,5.006,0,0,0,2,7V17a5.006,5.006,0,0,0,5,5H17a5.006,5.006,0,0,0,5-5V7A5.006,5.006,0,0,0,17,2Zm1,11h2v2H18Zm0-4h2v2H18Zm2-2H18V4.184A3,3,0,0,1,20,7ZM16,4v7H8V4ZM6,15H4V13H6ZM4,11V9H6v2ZM6,4.184V7H4A3,3,0,0,1,6,4.184ZM4,17H6v2.816A3,3,0,0,1,4,17Zm4,3V13h8v7Zm10-.184V17h2A3,3,0,0,1,18,19.816Z"/></g></svg>