<svg id="magicoon-Bold" xmlns="http://www.w3.org/2000/svg" viewBox="0 0 24 24"><defs><style>.cls-1{fill:#41416e;}</style></defs><title>filter</title><g id="filter-Bold"><path id="filter-Bold-2" data-name="filter-Bold" class="cls-1" d="M18.5,2H5.5A2.5,2.5,0,0,0,3,4.5V6.586A2.011,2.011,0,0,0,3.586,8l5.121,5.121A1.009,1.009,0,0,1,9,13.828V21a1,1,0,0,0,1.6.8l4-3A1,1,0,0,0,15,18V13.828a1.009,1.009,0,0,1,.293-.707L20.414,8A2.011,2.011,0,0,0,21,6.586V4.5A2.5,2.5,0,0,0,18.5,2ZM5.5,4h13a.5.5,0,0,1,.5.5V6H5V4.5A.5.5,0,0,1,5.5,4Zm8.379,7.707A2.978,2.978,0,0,0,13,13.828V17.5L11,19V13.828a2.978,2.978,0,0,0-.879-2.121L6.414,8H17.586Z"/></g></svg>