<svg id="magicoon-Bold" xmlns="http://www.w3.org/2000/svg" viewBox="0 0 24 24"><defs><style>.cls-1{fill:#41416e;}</style></defs><title>folder</title><g id="folder-Bold"><path id="folder-Bold-2" data-name="folder-Bold" class="cls-1" d="M17,7H12.8a.5.5,0,0,1-.416-.223l-1.11-1.664A2.5,2.5,0,0,0,9.2,4H7A5.006,5.006,0,0,0,2,9v7a5.006,5.006,0,0,0,5,5H17a5.006,5.006,0,0,0,5-5V12A5.006,5.006,0,0,0,17,7Zm3,9a3,3,0,0,1-3,3H7a3,3,0,0,1-3-3V9A3,3,0,0,1,7,6H9.2a.5.5,0,0,1,.416.223l1.11,1.664A2.5,2.5,0,0,0,12.8,9H17a3,3,0,0,1,3,3Z"/></g></svg>