<svg id="magicoon-Bold" xmlns="http://www.w3.org/2000/svg" viewBox="0 0 24 24"><defs><style>.cls-1{fill:#41416e;}</style></defs><title>headphones</title><g id="headphones-Bold"><path id="headphones-Bold-2" data-name="headphones-Bold" class="cls-1" d="M16.5,13A2.5,2.5,0,0,0,14,15.5v4a2.5,2.5,0,0,0,5,0v-4A2.5,2.5,0,0,0,16.5,13Zm.5,6.5a.5.5,0,0,1-1,0v-4a.5.5,0,0,1,1,0ZM7.5,13A2.5,2.5,0,0,0,5,15.5v4a2.5,2.5,0,0,0,5,0v-4A2.5,2.5,0,0,0,7.5,13ZM8,19.5a.5.5,0,0,1-1,0v-4a.5.5,0,0,1,1,0ZM22,12v5a1,1,0,0,1-2,0V12A8,8,0,0,0,4,12v5a1,1,0,0,1-2,0V12a10,10,0,0,1,20,0Z"/></g></svg>