<svg id="magicoon-Bold" xmlns="http://www.w3.org/2000/svg" viewBox="0 0 24 24"><defs><style>.cls-1{fill:#41416e;}</style></defs><title>heart</title><g id="heart-Bold"><path id="heart-Bold-2" data-name="heart-Bold" class="cls-1" d="M20.3,5.438A6.49,6.49,0,0,0,15.228,3,7.025,7.025,0,0,0,12,3.775,7.025,7.025,0,0,0,8.772,3,6.49,6.49,0,0,0,3.7,5.438,7.586,7.586,0,0,0,2.14,11.657c.993,5.095,6.152,8.636,8.324,9.922a3.017,3.017,0,0,0,3.073,0c2.171-1.285,7.33-4.826,8.323-9.921A7.586,7.586,0,0,0,20.3,5.438ZM19.9,11.274c-.838,4.3-5.439,7.435-7.379,8.583a1.022,1.022,0,0,1-1.036,0c-1.94-1.148-6.541-4.283-7.379-8.583A5.568,5.568,0,0,1,5.241,6.709,4.521,4.521,0,0,1,8.772,5a4.984,4.984,0,0,1,2.69.771,1.006,1.006,0,0,0,1.076,0A4.984,4.984,0,0,1,15.228,5a4.521,4.521,0,0,1,3.531,1.709A5.568,5.568,0,0,1,19.9,11.274Z"/></g></svg>