<svg id="magicoon-Bold" xmlns="http://www.w3.org/2000/svg" viewBox="0 0 24 24"><defs><style>.cls-1{fill:#41416e;}</style></defs><title>image</title><g id="image-Bold"><path id="image-Bold-2" data-name="image-Bold" class="cls-1" d="M17,3H7A5.006,5.006,0,0,0,2,8v8a4.953,4.953,0,0,0,.152,1.169.99.99,0,0,0,.045.143A4.994,4.994,0,0,0,7,21H17a5.006,5.006,0,0,0,5-5V8A5.006,5.006,0,0,0,17,3ZM7,5H17a3,3,0,0,1,3,3v4.586L16.417,9a2.009,2.009,0,0,0-2.834,0L9,13.586,8.417,13a2.009,2.009,0,0,0-2.834,0L4,14.586V8A3,3,0,0,1,7,5ZM17,19H7a3,3,0,0,1-2.759-1.825L7,14.417l.942.941a1.5,1.5,0,0,0,2.113,0L15,10.417l5,5V16A3,3,0,0,1,17,19ZM6.5,9A1.5,1.5,0,1,1,8,10.5,1.5,1.5,0,0,1,6.5,9Z"/></g></svg>