<svg id="magicoon-Bold" xmlns="http://www.w3.org/2000/svg" viewBox="0 0 24 24"><defs><style>.cls-1{fill:#41416e;}</style></defs><title>inbox</title><g id="inbox-Bold"><path id="inbox-Bold-2" data-name="inbox-Bold" class="cls-1" d="M7,10A1,1,0,0,1,8,9h8a1,1,0,0,1,0,2H8A1,1,0,0,1,7,10ZM9,8h6a1,1,0,0,0,0-2H9A1,1,0,0,0,9,8Zm13,5.487V16a5.006,5.006,0,0,1-5,5H7a5.006,5.006,0,0,1-5-5V13.487a3.99,3.99,0,0,1,.205-1.265l1.935-5.8A4.993,4.993,0,0,1,8.883,3h6.234A4.993,4.993,0,0,1,19.86,6.419l1.935,5.8A3.99,3.99,0,0,1,22,13.487ZM4.387,12H9a1,1,0,0,1,1,1,2,2,0,0,0,4,0,1,1,0,0,1,1-1h4.613l-1.65-4.948A3,3,0,0,0,15.117,5H8.883A3,3,0,0,0,6.037,7.052ZM20,16V14H15.874a4,4,0,0,1-7.748,0H4v2a3,3,0,0,0,3,3H17A3,3,0,0,0,20,16Z"/></g></svg>