<svg id="magicoon-Bold" xmlns="http://www.w3.org/2000/svg" viewBox="0 0 24 24"><defs><style>.cls-1{fill:#41416e;}</style></defs><title>log-in</title><g id="log-in-Bold"><path id="log-in-Bold-2" data-name="log-in-Bold" class="cls-1" d="M21,7V17a5.006,5.006,0,0,1-5,5H12a1,1,0,0,1,0-2h4a3,3,0,0,0,3-3V7a3,3,0,0,0-3-3H12a1,1,0,0,1,0-2h4A5.006,5.006,0,0,1,21,7Zm-6.077,5.382a1,1,0,0,0-.217-1.09l-4-4A1,1,0,1,0,9.293,8.707L11.586,11H4a1,1,0,0,0,0,2h7.586L9.293,15.293a1,1,0,1,0,1.414,1.414l4-4A1,1,0,0,0,14.923,12.382Z"/></g></svg>