<svg id="magicoon-Bold" xmlns="http://www.w3.org/2000/svg" viewBox="0 0 24 24"><defs><style>.cls-1{fill:#41416e;}</style></defs><title>map-pin</title><g id="map-pin-Bold"><path id="map-pin-Bold-2" data-name="map-pin-Bold" class="cls-1" d="M11,12.9V17a1,1,0,0,0,2,0V12.9a5.5,5.5,0,1,0-2,0ZM12,4A3.5,3.5,0,1,1,8.5,7.5,3.5,3.5,0,0,1,12,4Zm8,14c0,2.626-4.024,4-8,4s-8-1.374-8-4c0-1.7,1.8-3.082,4.8-3.69a1,1,0,0,1,.4,1.961C7.017,16.712,6,17.563,6,18c0,.7,2.278,2,6,2s6-1.3,6-2c0-.437-1.017-1.288-3.2-1.729a1,1,0,0,1,.4-1.961C18.2,14.918,20,16.3,20,18Z"/></g></svg>