<svg id="magicoon-Bold" xmlns="http://www.w3.org/2000/svg" viewBox="0 0 24 24"><defs><style>.cls-1{fill:#41416e;}</style></defs><title>map-marker</title><g id="map-marker-Bold"><path id="map-marker-Bold-2" data-name="map-marker-Bold" class="cls-1" d="M12,6a4,4,0,1,0,4,4A4,4,0,0,0,12,6Zm0,6a2,2,0,1,1,2-2A2,2,0,0,1,12,12ZM12,2a7.823,7.823,0,0,0-8,8c0,6.326,4.812,10.26,6.881,11.657a1.981,1.981,0,0,0,2.228,0C15.181,20.26,20,16.324,20,10A7.826,7.826,0,0,0,12,2Zm0,18c-1.8-1.219-6-4.633-6-10a5.8,5.8,0,0,1,6-6,5.87,5.87,0,0,1,6,6C18,15.364,13.8,18.781,12,20Z"/></g></svg>