<svg id="magicoon-Bold" xmlns="http://www.w3.org/2000/svg" viewBox="0 0 24 24"><defs><style>.cls-1{fill:#41416e;}</style></defs><title>map</title><g id="map-Bold"><path id="map-Bold-2" data-name="map-Bold" class="cls-1" d="M20.542,3.461a2.939,2.939,0,0,0-2.893-.107L15.438,4.489a.948.948,0,0,1-.876,0L10.351,2.327A2.956,2.956,0,0,0,9.019,2C9.012,2,9.007,2,9,2s-.012,0-.019,0a2.964,2.964,0,0,0-1.333.323L4.2,4.1A4.068,4.068,0,0,0,2,7.742V17.919a3.043,3.043,0,0,0,1.458,2.62,2.938,2.938,0,0,0,2.893.107l2.211-1.135a.948.948,0,0,1,.876,0l4.211,2.162A2.961,2.961,0,0,0,14.988,22L15,22l.012,0a2.961,2.961,0,0,0,1.339-.325h0L19.8,19.9A4.068,4.068,0,0,0,22,16.258V6.081A3.043,3.043,0,0,0,20.542,3.461ZM5.437,18.866a.943.943,0,0,1-.937-.034,1.056,1.056,0,0,1-.5-.913V7.742A2.074,2.074,0,0,1,5.115,5.877L8,4.395V17.6a2.952,2.952,0,0,0-.351.129Zm4.914-1.135A2.952,2.952,0,0,0,10,17.6V4.395l3.649,1.874A2.952,2.952,0,0,0,14,6.4V19.605ZM20,16.258a2.074,2.074,0,0,1-1.115,1.865L16,19.605V6.4a2.952,2.952,0,0,0,.351-.129l2.211-1.135a.943.943,0,0,1,.938.034,1.056,1.056,0,0,1,.5.913Z"/></g></svg>