<svg id="magicoon-Bold" xmlns="http://www.w3.org/2000/svg" viewBox="0 0 24 24"><defs><style>.cls-1{fill:#41416e;}</style></defs><title>microphone</title><g id="microphone-Bold"><path id="microphone-Bold-2" data-name="microphone-Bold" class="cls-1" d="M12,16a5.006,5.006,0,0,0,5-5V7A5,5,0,0,0,7,7v4A5.006,5.006,0,0,0,12,16ZM9,7a3,3,0,0,1,6,0v4a3,3,0,0,1-6,0Zm4,11.931V20h3a1,1,0,0,1,0,2H8a1,1,0,0,1,0-2h3V18.931A8.008,8.008,0,0,1,4,11a1,1,0,0,1,2,0,6,6,0,0,0,12,0,1,1,0,0,1,2,0A8.008,8.008,0,0,1,13,18.931Z"/></g></svg>