<svg id="magicoon-Bold" xmlns="http://www.w3.org/2000/svg" viewBox="0 0 24 24"><defs><style>.cls-1{fill:#41416e;}</style></defs><title>microphone-slash</title><g id="microphone-slash-Bold"><path id="microphone-slash-Bold-2" data-name="microphone-slash-Bold" class="cls-1" d="M12,16a5.006,5.006,0,0,0,5-5V8.414l3.707-3.707a1,1,0,1,0-1.414-1.414l-4,4,0,0-12,12a1,1,0,1,0,1.414,1.414l2.98-2.98A7.972,7.972,0,0,0,11,18.93V20H8a1,1,0,0,0,0,2h8a1,1,0,0,0,0-2H13V18.931A8.008,8.008,0,0,0,20,11a1,1,0,0,0-2,0,5.986,5.986,0,0,1-8.854,5.268l.745-.745A4.957,4.957,0,0,0,12,16Zm3-5a3,3,0,0,1-3,3,2.865,2.865,0,0,1-.532-.054L15,10.414ZM7.121,12.1A5.437,5.437,0,0,1,7,11V7a5,5,0,0,1,9.1-2.85,1,1,0,1,1-1.644,1.139A3,3,0,0,0,9,7v4a3.453,3.453,0,0,0,.079.7A1,1,0,0,1,8.3,12.88a1.022,1.022,0,0,1-.2.02A1,1,0,0,1,7.121,12.1ZM4.893,14.682A8,8,0,0,1,4,11a1,1,0,0,1,2,0,5.983,5.983,0,0,0,.667,2.758,1,1,0,0,1-.425,1.348.985.985,0,0,1-.461.114A1,1,0,0,1,4.893,14.682Z"/></g></svg>