<svg id="magicoon-Bold" xmlns="http://www.w3.org/2000/svg" viewBox="0 0 24 24"><defs><style>.cls-1{fill:#41416e;}</style></defs><title>minus-square</title><g id="minus-square-Bold"><path id="minus-square-Bold-2" data-name="minus-square-Bold" class="cls-1" d="M15,2H9A7.008,7.008,0,0,0,2,9v6a7.008,7.008,0,0,0,7,7h6a7.008,7.008,0,0,0,7-7V9A7.008,7.008,0,0,0,15,2Zm5,13a5.006,5.006,0,0,1-5,5H9a5.006,5.006,0,0,1-5-5V9A5.006,5.006,0,0,1,9,4h6a5.006,5.006,0,0,1,5,5Zm-3-3a1,1,0,0,1-1,1H8a1,1,0,0,1,0-2h8A1,1,0,0,1,17,12Z"/></g></svg>