<svg id="magicoon-Bold" xmlns="http://www.w3.org/2000/svg" viewBox="0 0 24 24"><defs><style>.cls-1{fill:#41416e;}</style></defs><title>more-h-circle</title><g id="more-v-circle-Bold-2" data-name="more-v-circle-Bold"><path id="more-v-circle-Bold-3" data-name="more-v-circle-Bold" class="cls-1" d="M17.75,12a1.25,1.25,0,1,1-1.25-1.25A1.25,1.25,0,0,1,17.75,12ZM12,10.75A1.25,1.25,0,1,0,13.25,12,1.25,1.25,0,0,0,12,10.75Zm-4.5,0A1.25,1.25,0,1,0,8.75,12,1.25,1.25,0,0,0,7.5,10.75ZM22,12A10,10,0,1,1,12,2,10.011,10.011,0,0,1,22,12Zm-2,0a8,8,0,1,0-8,8A8.009,8.009,0,0,0,20,12Z"/></g></svg>