<svg id="magicoon-Bold" xmlns="http://www.w3.org/2000/svg" viewBox="0 0 24 24"><defs><style>.cls-1{fill:#41416e;}</style></defs><title>package</title><g id="package-Bold"><path id="package-Bold-2" data-name="package-Bold" class="cls-1" d="M18.918,4.481l-4.4-1.954a6.314,6.314,0,0,0-5.038,0h0l-4.4,1.954A5.008,5.008,0,0,0,2,8.973v6.049a5.008,5.008,0,0,0,3.082,4.492l4.4,1.955a6.221,6.221,0,0,0,2.492.523.059.059,0,0,0,.052,0,6.226,6.226,0,0,0,2.493-.523l4.4-1.955A5.008,5.008,0,0,0,22,15.022V8.973A5.008,5.008,0,0,0,18.918,4.481Zm-5.211-.126,4.4,1.954a3.753,3.753,0,0,1,.394.205l-2,.89L9.963,4.5l.329-.146A4.27,4.27,0,0,1,13.707,4.355ZM7.5,5.6l6.535,2.9-.934.415a2.868,2.868,0,0,1-2.2,0l-5.4-2.4A3.77,3.77,0,0,1,5.9,6.309ZM5.894,17.686A2.973,2.973,0,0,1,4,15.022V8.973a2.6,2.6,0,0,1,.153-.868l5.933,2.637a4.511,4.511,0,0,0,.914.291v8.834a4.118,4.118,0,0,1-.706-.226ZM20,15.022a2.973,2.973,0,0,1-1.895,2.664l-4.4,1.955a4.157,4.157,0,0,1-.707.226V11.033a4.511,4.511,0,0,0,.914-.291l5.933-2.637A2.6,2.6,0,0,1,20,8.973Z"/></g></svg>