<svg id="magicoon-Bold" xmlns="http://www.w3.org/2000/svg" viewBox="0 0 24 24"><defs><style>.cls-1{fill:#41416e;}</style></defs><title>phone</title><g id="phone-Bold"><path id="phone-Bold-2" data-name="phone-Bold" class="cls-1" d="M21.933,16.557c-.026-.144-.055-.271-.086-.381a1.976,1.976,0,0,0-1.586-1.392l-4.331-.72a2.012,2.012,0,0,0-1.9.729c-.059.073-.114.15-.227.274a9.093,9.093,0,0,1-4.83-4.92c.1-.07.2-.143.3-.22A2.015,2.015,0,0,0,9.986,8.05L9.315,3.8A1.987,1.987,0,0,0,7.979,2.207a4.122,4.122,0,0,0-.543-.136A4.531,4.531,0,0,0,3.673,3.114,4.778,4.778,0,0,0,2,6.881,15.543,15.543,0,0,0,17.118,22h.131a4.769,4.769,0,0,0,3.618-1.661A4.573,4.573,0,0,0,21.933,16.557ZM19.354,19.03A2.769,2.769,0,0,1,17.172,20,13.543,13.543,0,0,1,4,6.826a2.792,2.792,0,0,1,.975-2.2A2.53,2.53,0,0,1,6.633,4a2.615,2.615,0,0,1,.447.04,1.6,1.6,0,0,1,.26.068l.666,4.268c-.051.04-.1.078-.159.116A2.027,2.027,0,0,0,7.1,11,11.354,11.354,0,0,0,13,16.9a2.031,2.031,0,0,0,2.507-.749l.093-.116,4.321.681a1.862,1.862,0,0,1,.04.184A2.576,2.576,0,0,1,19.354,19.03Z"/></g></svg>