<svg id="magicoon-Bold" xmlns="http://www.w3.org/2000/svg" viewBox="0 0 24 24"><defs><style>.cls-1{fill:#41416e;}</style></defs><title>question-circle</title><g id="question-circle-Bold"><path id="question-circle-Bold-2" data-name="question-circle-Bold" class="cls-1" d="M12,2A10,10,0,1,0,22,12,10.011,10.011,0,0,0,12,2Zm0,18a8,8,0,1,1,8-8A8.009,8.009,0,0,1,12,20ZM15.937,9.283a3.884,3.884,0,0,1-1.9,4.032c-.925.616-1.073.945-1.093,1a1,1,0,0,1-1.895-.638,4.541,4.541,0,0,1,1.88-2.032,1.866,1.866,0,0,0,1.035-2.02,2.025,2.025,0,0,0-1.6-1.6A2,2,0,0,0,10,10a1,1,0,0,1-2,0,4,4,0,0,1,7.937-.717ZM13,17a1,1,0,1,1-1-1A1,1,0,0,1,13,17Z"/></g></svg>