<svg id="magicoon-Bold" xmlns="http://www.w3.org/2000/svg" viewBox="0 0 24 24"><defs><style>.cls-1{fill:#41416e;}</style></defs><title>send</title><g id="send-Bold"><path id="send-Bold-2" data-name="send-Bold" class="cls-1" d="M21.1,2.9a3.027,3.027,0,0,0-2.9-.8L5.091,5.372A4.019,4.019,0,0,0,2,9.358,4.022,4.022,0,0,0,5.146,13.3l4.5,1.057L10.7,18.854A4.021,4.021,0,0,0,14.642,22h.03a4.019,4.019,0,0,0,3.957-3.09h0L21.907,5.8A3.028,3.028,0,0,0,21.1,2.9ZM19.967,5.312,16.688,18.425A1.976,1.976,0,0,1,14.655,20a2,2,0,0,1-2.009-1.6L11.573,13.84l4.134-4.133a1,1,0,0,0-1.414-1.414l-4.134,4.133L5.6,11.354A2,2,0,0,1,4,9.345,2.006,2.006,0,0,1,5.576,7.312L18.689,4.033A1.132,1.132,0,0,1,18.956,4a1.049,1.049,0,0,1,.734.311A1.039,1.039,0,0,1,19.967,5.312Z"/></g></svg>