<svg id="magicoon-Bold" xmlns="http://www.w3.org/2000/svg" viewBox="0 0 24 24"><defs><style>.cls-1{fill:#41416e;}</style></defs><title>shopping-basket</title><g id="shopping-basket-Bold"><path id="shopping-basket-Bold-2" data-name="shopping-basket-Bold" class="cls-1" d="M11,15v3a1,1,0,0,1-2,0V15a1,1,0,0,1,2,0Zm3-1a1,1,0,0,0-1,1v3a1,1,0,0,0,2,0V15A1,1,0,0,0,14,14Zm6.429-1.379-.751,5.886A4.008,4.008,0,0,1,15.71,22h-7.4a4.011,4.011,0,0,1-3.966-3.48l-.773-5.9A2.989,2.989,0,0,1,5,7H6.434L9.143,2.485a1,1,0,0,1,1.714,1.03L8.766,7h6.468L13.143,3.515a1,1,0,1,1,1.714-1.03L17.566,7H19a2.989,2.989,0,0,1,1.429,5.621ZM4,10a1,1,0,0,0,1,1H19a1,1,0,0,0,0-2H5A1,1,0,0,0,4,10Zm14.364,3H5.64l.69,5.26A2,2,0,0,0,8.312,20h7.4a2,2,0,0,0,1.984-1.746Z"/></g></svg>