<svg id="magicoon-Bold" xmlns="http://www.w3.org/2000/svg" viewBox="0 0 24 24"><defs><style>.cls-1{fill:#41416e;}</style></defs><title>sort-descending</title><g id="sort-descending-Bold"><path id="sort-descending-Bold-2" data-name="sort-descending-Bold" class="cls-1" d="M12,2A10,10,0,1,0,22,12,10.011,10.011,0,0,0,12,2Zm0,18a8,8,0,1,1,8-8A8.009,8.009,0,0,1,12,20ZM17,8a1,1,0,0,1-1,1H8A1,1,0,0,1,8,7h8A1,1,0,0,1,17,8Zm-1.5,4a1,1,0,0,1-1,1h-5a1,1,0,0,1,0-2h5A1,1,0,0,1,15.5,12ZM14,16a1,1,0,0,1-1,1H11a1,1,0,0,1,0-2h2A1,1,0,0,1,14,16Z"/></g></svg>