<svg id="magicoon-Bold" xmlns="http://www.w3.org/2000/svg" viewBox="0 0 24 24"><defs><style>.cls-1{fill:#41416e;}</style></defs><title>sort-ascending</title><g id="sort-ascending-Bold"><path id="sort-ascending-Bold-2" data-name="sort-ascending-Bold" class="cls-1" d="M12,2A10,10,0,1,0,22,12,10.011,10.011,0,0,0,12,2Zm0,18a8,8,0,1,1,8-8A8.009,8.009,0,0,1,12,20Zm5-4a1,1,0,0,1-1,1H8a1,1,0,0,1,0-2h8A1,1,0,0,1,17,16ZM8.5,12a1,1,0,0,1,1-1h5a1,1,0,0,1,0,2h-5A1,1,0,0,1,8.5,12ZM10,8a1,1,0,0,1,1-1h2a1,1,0,0,1,0,2H11A1,1,0,0,1,10,8Z"/></g></svg>