<svg id="magicoon-Bold" xmlns="http://www.w3.org/2000/svg" viewBox="0 0 24 24"><defs><style>.cls-1{fill:#41416e;}</style></defs><title>star</title><g id="star-Bold"><path id="star-Bold-2" data-name="star-Bold" class="cls-1" d="M21.887,10.1a2.34,2.34,0,0,0-1.913-1.605l-4.05-.58L14.115,4.3a2.37,2.37,0,0,0-4.23,0L8.076,7.911l-4.05.58A2.34,2.34,0,0,0,2.113,10.1,2.314,2.314,0,0,0,2.72,12.49L5.642,15.3l-.689,3.959a2.318,2.318,0,0,0,.922,2.281,2.361,2.361,0,0,0,2.5.192L12,19.853l3.626,1.877a2.363,2.363,0,0,0,2.5-.192,2.318,2.318,0,0,0,.922-2.281L18.358,15.3,21.28,12.49A2.314,2.314,0,0,0,21.887,10.1Zm-1.992.953-3.306,3.176a1,1,0,0,0-.293.892l.781,4.484a.317.317,0,0,1-.135.324.371.371,0,0,1-.4.03L12.46,17.839a.991.991,0,0,0-.92,0L7.454,19.955a.371.371,0,0,1-.4-.03.317.317,0,0,1-.135-.324L7.7,15.117a1,1,0,0,0-.293-.892L4.105,11.049a.311.311,0,0,1-.088-.339.339.339,0,0,1,.292-.238l4.568-.655a1,1,0,0,0,.753-.542L11.673,5.2a.371.371,0,0,1,.654,0L14.37,9.275a1,1,0,0,0,.753.542l4.568.655a.339.339,0,0,1,.292.238A.311.311,0,0,1,19.9,11.049Z"/></g></svg>