<svg id="magicoon-Bold" xmlns="http://www.w3.org/2000/svg" viewBox="0 0 24 24"><defs><style>.cls-1{fill:#41416e;}</style></defs><title>store</title><g id="store-Bold"><path id="store-Bold-2" data-name="store-Bold" class="cls-1" d="M22,9a1.008,1.008,0,0,0-.051-.318L20.86,5.419A4.993,4.993,0,0,0,16.117,2H7.883A4.993,4.993,0,0,0,3.14,5.419L2.051,8.684A1.008,1.008,0,0,0,2,9a3.979,3.979,0,0,0,1,2.616V18a4,4,0,0,0,4,4h4.027V18a1,1,0,0,1,2,0v4H17a4,4,0,0,0,4-4V11.618A3.979,3.979,0,0,0,22,9ZM5.037,6.052A3,3,0,0,1,7.883,4h8.234a3,3,0,0,1,2.846,2.052L20,9.146A1.974,1.974,0,0,1,18.01,11a2.252,2.252,0,0,1-2.066-1.331A1,1,0,0,0,15,9h0a1,1,0,0,0-.942.677,2.256,2.256,0,0,1-4.108,0A1,1,0,0,0,9,9H9a1,1,0,0,0-.944.669A2.252,2.252,0,0,1,5.99,11,1.974,1.974,0,0,1,4.005,9.146ZM17,20H15.027V18a3,3,0,0,0-6,0v2H7a2,2,0,0,1-2-2V12.86a3.95,3.95,0,0,0,.99.14A4.39,4.39,0,0,0,9,11.779a4.306,4.306,0,0,0,6.008,0A4.393,4.393,0,0,0,18.01,13a3.9,3.9,0,0,0,.99-.14V18A2,2,0,0,1,17,20Z"/></g></svg>