<svg id="magicoon-Bold" xmlns="http://www.w3.org/2000/svg" viewBox="0 0 24 24"><defs><style>.cls-1{fill:#41416e;}</style></defs><title>tag</title><g id="tag-Bold"><path id="tag-Bold-2" data-name="tag-Bold" class="cls-1" d="M20.537,10,14,3.465A4.972,4.972,0,0,0,10.468,2H6A4,4,0,0,0,2,6v4.466A4.968,4.968,0,0,0,3.466,14L10,20.535a5,5,0,0,0,7.071,0l3.466-3.466A5.006,5.006,0,0,0,20.537,10Zm-1.414,5.657-3.467,3.466a3.072,3.072,0,0,1-4.242,0L4.88,12.588A2.982,2.982,0,0,1,4,10.466V6A2,2,0,0,1,6,4h4.467a3.02,3.02,0,0,1,2.121.879l6.534,6.533A3.005,3.005,0,0,1,19.123,15.655ZM9,7.5A1.5,1.5,0,1,1,7.5,6,1.5,1.5,0,0,1,9,7.5Z"/></g></svg>