<svg id="magicoon-Bold" xmlns="http://www.w3.org/2000/svg" viewBox="0 0 24 24"><defs><style>.cls-1{fill:#41416e;}</style></defs><title>thumbtack</title><g id="thumbtack-Bold"><path id="thumbtack-Bold-2" data-name="thumbtack-Bold" class="cls-1" d="M17.587,9.173,17,8.586V6.364A6.128,6.128,0,0,0,18,3a1,1,0,0,0-1-1H7A1,1,0,0,0,6,3,6.121,6.121,0,0,0,7,6.364V8.586l-.587.587A8.186,8.186,0,0,0,4,15a1,1,0,0,0,1,1h6v5a1,1,0,0,0,2,0V16h6a1,1,0,0,0,1-1A8.185,8.185,0,0,0,17.587,9.173ZM6.079,14a6.192,6.192,0,0,1,1.748-3.412l.88-.88A1,1,0,0,0,9,9V6a1,1,0,0,0-.293-.707A2.91,2.91,0,0,1,8.122,4h7.756a2.92,2.92,0,0,1-.585,1.293A1,1,0,0,0,15,6V9a1,1,0,0,0,.293.707l.88.88A6.2,6.2,0,0,1,17.921,14Z"/></g></svg>