<svg id="magicoon-Bold" xmlns="http://www.w3.org/2000/svg" viewBox="0 0 24 24"><defs><style>.cls-1{fill:#41416e;}</style></defs><title>times-square</title><g id="times-square-Bold"><path id="times-square-Bold-2" data-name="times-square-Bold" class="cls-1" d="M15.707,9.707,13.414,12l2.293,2.293a1,1,0,1,1-1.414,1.414L12,13.414,9.707,15.707a1,1,0,0,1-1.414-1.414L10.586,12,8.293,9.707A1,1,0,0,1,9.707,8.293L12,10.586l2.293-2.293a1,1,0,0,1,1.414,1.414ZM22,9v6a7.008,7.008,0,0,1-7,7H9a7.008,7.008,0,0,1-7-7V9A7.008,7.008,0,0,1,9,2h6A7.008,7.008,0,0,1,22,9ZM20,9a5.006,5.006,0,0,0-5-5H9A5.006,5.006,0,0,0,4,9v6a5.006,5.006,0,0,0,5,5h6a5.006,5.006,0,0,0,5-5Z"/></g></svg>