<svg id="magicoon-Bold" xmlns="http://www.w3.org/2000/svg" viewBox="0 0 24 24"><defs><style>.cls-1{fill:#41416e;}</style></defs><title>trash</title><g id="trash-Bold"><path id="trash-Bold-2" data-name="trash-Bold" class="cls-1" d="M21,5H17.441a1,1,0,0,1-.948-.683l-.316-.95A2,2,0,0,0,14.279,2H9.721a2,2,0,0,0-1.9,1.368l-.316.948A1,1,0,0,1,6.559,5H3A1,1,0,0,0,3,7H4.065l.751,11.266A4.01,4.01,0,0,0,8.807,22h6.386a4.01,4.01,0,0,0,3.991-3.734L19.935,7H21a1,1,0,0,0,0-2ZM9.721,4h4.558l.316.95c.006.018.016.033.022.051H9.383c.006-.018.016-.034.022-.052Zm7.468,14.133a2.005,2.005,0,0,1-2,1.867H8.807a2.005,2.005,0,0,1-2-1.867L6.069,7h.49a3.013,3.013,0,0,0,.316-.025A1.063,1.063,0,0,0,7,7H17a1.063,1.063,0,0,0,.125-.025A3.013,3.013,0,0,0,17.441,7h.49ZM15,11v5a1,1,0,0,1-2,0V11a1,1,0,0,1,2,0Zm-4,0v5a1,1,0,0,1-2,0V11a1,1,0,0,1,2,0Z"/></g></svg>