<svg id="magicoon-Bold" xmlns="http://www.w3.org/2000/svg" viewBox="0 0 24 24"><defs><style>.cls-1{fill:#41416e;}</style></defs><title>unlock</title><g id="unlock-Bold"><path id="unlock-Bold-2" data-name="unlock-Bold" class="cls-1" d="M15,9H9V7a3,3,0,0,1,3-3,3.163,3.163,0,0,1,3.032,2.249,1,1,0,1,0,1.936-.5A5.145,5.145,0,0,0,12,2,5.006,5.006,0,0,0,7,7V9.424A5,5,0,0,0,4,14v3a5.006,5.006,0,0,0,5,5h6a5.006,5.006,0,0,0,5-5V14A5.006,5.006,0,0,0,15,9Zm3,8a3,3,0,0,1-3,3H9a3,3,0,0,1-3-3V14a3,3,0,0,1,3-3h6a3,3,0,0,1,3,3Zm-5-2v1a1,1,0,0,1-2,0V15a1,1,0,0,1,2,0Z"/></g></svg>