<svg id="magicoon-Bold" xmlns="http://www.w3.org/2000/svg" viewBox="0 0 24 24"><defs><style>.cls-1{fill:#41416e;}</style></defs><title>upload</title><g id="upload-Bold"><path id="upload-Bold-2" data-name="upload-Bold" class="cls-1" d="M8.293,7.707a1,1,0,0,1,0-1.414l3-3a1,1,0,0,1,1.414,0l3,3a1,1,0,1,1-1.414,1.414L13,6.414V11a1,1,0,0,1-2,0V6.414L9.707,7.707A1,1,0,0,1,8.293,7.707ZM17,10a1,1,0,0,0,0,2,3,3,0,0,1,3,3v1a3,3,0,0,1-3,3H7a3,3,0,0,1-3-3V15a3,3,0,0,1,3-3,1,1,0,0,0,0-2,5.006,5.006,0,0,0-5,5v1a5.006,5.006,0,0,0,5,5H17a5.006,5.006,0,0,0,5-5V15A5.006,5.006,0,0,0,17,10Zm1,5a1,1,0,1,0-1,1A1,1,0,0,0,18,15Z"/></g></svg>