<svg id="magicoon-Bold" xmlns="http://www.w3.org/2000/svg" viewBox="0 0 24 24"><defs><style>.cls-1{fill:#41416e;}</style></defs><title>users</title><g id="users-Bold"><path id="users-Bold-2" data-name="users-Bold" class="cls-1" d="M17,17.639v.507a3.754,3.754,0,0,1-.974,2.526,1,1,0,0,1-1.482-1.344A1.754,1.754,0,0,0,15,18.146v-.507a2.685,2.685,0,0,0-2.036-2.618.649.649,0,0,0-.476.058,6.227,6.227,0,0,1-5.967,0,.647.647,0,0,0-.485-.063A2.685,2.685,0,0,0,4,17.639v.507a1.756,1.756,0,0,0,.456,1.182,1,1,0,1,1-1.482,1.344A3.754,3.754,0,0,1,2,18.146v-.507a4.684,4.684,0,0,1,3.554-4.56,2.693,2.693,0,0,1,1.938.256,4.2,4.2,0,0,0,4.025-.005,2.688,2.688,0,0,1,1.929-.251A4.684,4.684,0,0,1,17,17.639Zm1.446-4.56a1,1,0,1,0-.482,1.942A2.685,2.685,0,0,1,20,17.639v.507a1.754,1.754,0,0,1-.456,1.182,1,1,0,0,0,1.482,1.344A3.754,3.754,0,0,0,22,18.146v-.507A4.684,4.684,0,0,0,18.446,13.079ZM4.5,8a5,5,0,1,1,5,5A5.006,5.006,0,0,1,4.5,8Zm2,0a3,3,0,1,0,3-3A3,3,0,0,0,6.5,8Zm13,0a5,5,0,0,0-4.376-4.961,1,1,0,1,0-.248,1.984,3,3,0,0,1,1.5,5.319,1,1,0,1,0,1.251,1.56A4.976,4.976,0,0,0,19.5,8Z"/></g></svg>