<svg id="magicoon-Bold" xmlns="http://www.w3.org/2000/svg" viewBox="0 0 24 24"><defs><style>.cls-1{fill:#41416e;}</style></defs><title>users-three</title><g id="users-three-Bold"><path id="users-three-Bold-2" data-name="users-three-Bold" class="cls-1" d="M12,14A5,5,0,1,0,7,9,5.006,5.006,0,0,0,12,14Zm0-8A3,3,0,1,1,9,9,3,3,0,0,1,12,6Zm7,12.4v.867a3.593,3.593,0,0,1-.915,2.4,1,1,0,0,1-1.49-1.334A1.6,1.6,0,0,0,17,19.267V18.4a2.437,2.437,0,0,0-1.823-2.383.51.51,0,0,0-.374.045,5.764,5.764,0,0,1-5.594.006.506.506,0,0,0-.383-.051A2.436,2.436,0,0,0,7,18.4v.867a1.6,1.6,0,0,0,.405,1.066,1,1,0,0,1-1.49,1.334A3.593,3.593,0,0,1,5,19.267V18.4a4.433,4.433,0,0,1,3.337-4.323,2.5,2.5,0,0,1,1.854.25,3.762,3.762,0,0,0,3.629-.007,2.533,2.533,0,0,1,1.846-.243A4.434,4.434,0,0,1,19,18.4ZM17.058,4.838a1,1,0,0,1,1.275-.609,4,4,0,0,1,1.334,6.752,1,1,0,0,1-1.334-1.49,2,2,0,0,0-.666-3.378A1,1,0,0,1,17.058,4.838Zm4.942,11v.722a1,1,0,0,1-2,0v-.722a1.865,1.865,0,0,0-1.394-1.825,1,1,0,0,1,.487-1.94A3.862,3.862,0,0,1,22,15.834ZM4.333,11.426A4,4,0,0,1,5.667,4.673a1,1,0,0,1,.666,1.885,2,2,0,0,0-.666,3.378,1,1,0,1,1-1.334,1.49ZM5.4,14.453A1.865,1.865,0,0,0,4,16.278V17a1,1,0,0,1-2,0v-.722a3.861,3.861,0,0,1,2.907-3.764A1,1,0,0,1,5.4,14.453Z"/></g></svg>