<svg id="magicoon-Bold" xmlns="http://www.w3.org/2000/svg" viewBox="0 0 24 24"><defs><style>.cls-1{fill:#41416e;}</style></defs><title>video-slash</title><g id="video-slash-Bold"><path id="video-slash-Bold-2" data-name="video-slash-Bold" class="cls-1" d="M3.721,17.28a1,1,0,0,1-.823-.43A4.993,4.993,0,0,1,2,14V10A5.006,5.006,0,0,1,7,5h4a4.994,4.994,0,0,1,2.849.9A1,1,0,1,1,12.71,7.542,3,3,0,0,0,11,7H7a3,3,0,0,0-3,3v4a3,3,0,0,0,.542,1.711,1,1,0,0,1-.821,1.569ZM22,9.238v5.524a2.2,2.2,0,0,1-3.418,1.832l-2.665-1.771A5,5,0,0,1,11,19H7a4.778,4.778,0,0,1-.553-.033l-1.74,1.74a1,1,0,0,1-1.414-1.414l16-16a1,1,0,1,1,1.414,1.414L16.87,8.544l1.712-1.138A2.2,2.2,0,0,1,22,9.238ZM14,14V11.414L8.414,17H11A3,3,0,0,0,14,14Zm6-4.762a.2.2,0,0,0-.311-.166L16,11.524v.952l3.689,2.452A.2.2,0,0,0,20,14.762Z"/></g></svg>