<svg id="magicoon-Bold" xmlns="http://www.w3.org/2000/svg" viewBox="0 0 24 24"><defs><style>.cls-1{fill:#41416e;}</style></defs><title>volume-up</title><g id="volume-up-Bold"><path id="volume-up-Bold-2" data-name="volume-up-Bold" class="cls-1" d="M11.96,3.324a3.461,3.461,0,0,0-3.736.524L5.631,6.073h-.74A2.9,2.9,0,0,0,2,8.975v6.05a2.9,2.9,0,0,0,2.892,2.9h.737l2.6,2.225A3.464,3.464,0,0,0,10.489,21a3.509,3.509,0,0,0,1.471-.326A3.468,3.468,0,0,0,14,17.489V6.511A3.471,3.471,0,0,0,11.96,3.324ZM12,17.489a1.5,1.5,0,0,1-2.475,1.146L6.932,16.409a2.006,2.006,0,0,0-1.3-.482H4.895a.9.9,0,0,1-.895-.9V8.975a.9.9,0,0,1,.895-.9h.741a2.011,2.011,0,0,0,1.3-.482L9.525,5.365A1.483,1.483,0,0,1,10.49,5a1.511,1.511,0,0,1,.635.143A1.471,1.471,0,0,1,12,6.511ZM18,12a5.912,5.912,0,0,1-1.2,3.6A1,1,0,1,1,15.2,14.4a4,4,0,0,0,0-4.792A1,1,0,1,1,16.8,8.4,5.912,5.912,0,0,1,18,12Zm4,0a9.956,9.956,0,0,1-2.557,6.669,1,1,0,0,1-1.486-1.338,7.977,7.977,0,0,0,0-10.662,1,1,0,1,1,1.486-1.338A9.956,9.956,0,0,1,22,12Z"/></g></svg>